G04 #@! TF.GenerationSoftware,KiCad,Pcbnew,(6.0.7)*
G04 #@! TF.CreationDate,2022-09-20T02:34:23+09:00*
G04 #@! TF.ProjectId,autocar_motcntr_v1,6175746f-6361-4725-9f6d-6f74636e7472,rev?*
G04 #@! TF.SameCoordinates,Original*
G04 #@! TF.FileFunction,Legend,Top*
G04 #@! TF.FilePolarity,Positive*
%FSLAX46Y46*%
G04 Gerber Fmt 4.6, Leading zero omitted, Abs format (unit mm)*
G04 Created by KiCad (PCBNEW (6.0.7)) date 2022-09-20 02:34:23*
%MOMM*%
%LPD*%
G01*
G04 APERTURE LIST*
%ADD10C,0.076200*%
%ADD11C,0.228600*%
%ADD12C,0.150000*%
%ADD13C,0.101600*%
%ADD14C,0.120000*%
G04 APERTURE END LIST*
D10*
X173397333Y-85192809D02*
X173155428Y-85192809D01*
X173155428Y-84684809D01*
X173542476Y-84733190D02*
X173566666Y-84709000D01*
X173615047Y-84684809D01*
X173736000Y-84684809D01*
X173784380Y-84709000D01*
X173808571Y-84733190D01*
X173832761Y-84781571D01*
X173832761Y-84829952D01*
X173808571Y-84902523D01*
X173518285Y-85192809D01*
X173832761Y-85192809D01*
X173094952Y-80112809D02*
X173094952Y-79604809D01*
X173094952Y-79846714D02*
X173385238Y-79846714D01*
X173385238Y-80112809D02*
X173385238Y-79604809D01*
X173893238Y-80112809D02*
X173602952Y-80112809D01*
X173748095Y-80112809D02*
X173748095Y-79604809D01*
X173699714Y-79677380D01*
X173651333Y-79725761D01*
X173602952Y-79749952D01*
X173397333Y-87732809D02*
X173155428Y-87732809D01*
X173155428Y-87224809D01*
X173832761Y-87732809D02*
X173542476Y-87732809D01*
X173687619Y-87732809D02*
X173687619Y-87224809D01*
X173639238Y-87297380D01*
X173590857Y-87345761D01*
X173542476Y-87369952D01*
X173397333Y-82652809D02*
X173155428Y-82652809D01*
X173155428Y-82144809D01*
X173518285Y-82144809D02*
X173832761Y-82144809D01*
X173663428Y-82338333D01*
X173736000Y-82338333D01*
X173784380Y-82362523D01*
X173808571Y-82386714D01*
X173832761Y-82435095D01*
X173832761Y-82556047D01*
X173808571Y-82604428D01*
X173784380Y-82628619D01*
X173736000Y-82652809D01*
X173590857Y-82652809D01*
X173542476Y-82628619D01*
X173518285Y-82604428D01*
X173094952Y-75159809D02*
X173094952Y-74651809D01*
X173094952Y-74893714D02*
X173385238Y-74893714D01*
X173385238Y-75159809D02*
X173385238Y-74651809D01*
X173578761Y-74651809D02*
X173893238Y-74651809D01*
X173723904Y-74845333D01*
X173796476Y-74845333D01*
X173844857Y-74869523D01*
X173869047Y-74893714D01*
X173893238Y-74942095D01*
X173893238Y-75063047D01*
X173869047Y-75111428D01*
X173844857Y-75135619D01*
X173796476Y-75159809D01*
X173651333Y-75159809D01*
X173602952Y-75135619D01*
X173578761Y-75111428D01*
X173094952Y-77572809D02*
X173094952Y-77064809D01*
X173094952Y-77306714D02*
X173385238Y-77306714D01*
X173385238Y-77572809D02*
X173385238Y-77064809D01*
X173602952Y-77113190D02*
X173627142Y-77089000D01*
X173675523Y-77064809D01*
X173796476Y-77064809D01*
X173844857Y-77089000D01*
X173869047Y-77113190D01*
X173893238Y-77161571D01*
X173893238Y-77209952D01*
X173869047Y-77282523D01*
X173578761Y-77572809D01*
X173893238Y-77572809D01*
X130930952Y-87732809D02*
X130930952Y-87224809D01*
X130930952Y-87466714D02*
X131221238Y-87466714D01*
X131221238Y-87732809D02*
X131221238Y-87224809D01*
X131414761Y-87224809D02*
X131729238Y-87224809D01*
X131559904Y-87418333D01*
X131632476Y-87418333D01*
X131680857Y-87442523D01*
X131705047Y-87466714D01*
X131729238Y-87515095D01*
X131729238Y-87636047D01*
X131705047Y-87684428D01*
X131680857Y-87708619D01*
X131632476Y-87732809D01*
X131487333Y-87732809D01*
X131438952Y-87708619D01*
X131414761Y-87684428D01*
X130930952Y-85192809D02*
X130930952Y-84684809D01*
X130930952Y-84926714D02*
X131221238Y-84926714D01*
X131221238Y-85192809D02*
X131221238Y-84684809D01*
X131438952Y-84733190D02*
X131463142Y-84709000D01*
X131511523Y-84684809D01*
X131632476Y-84684809D01*
X131680857Y-84709000D01*
X131705047Y-84733190D01*
X131729238Y-84781571D01*
X131729238Y-84829952D01*
X131705047Y-84902523D01*
X131414761Y-85192809D01*
X131729238Y-85192809D01*
X130930952Y-82779809D02*
X130930952Y-82271809D01*
X130930952Y-82513714D02*
X131221238Y-82513714D01*
X131221238Y-82779809D02*
X131221238Y-82271809D01*
X131729238Y-82779809D02*
X131438952Y-82779809D01*
X131584095Y-82779809D02*
X131584095Y-82271809D01*
X131535714Y-82344380D01*
X131487333Y-82392761D01*
X131438952Y-82416952D01*
X131233333Y-80239809D02*
X130991428Y-80239809D01*
X130991428Y-79731809D01*
X131354285Y-79731809D02*
X131668761Y-79731809D01*
X131499428Y-79925333D01*
X131572000Y-79925333D01*
X131620380Y-79949523D01*
X131644571Y-79973714D01*
X131668761Y-80022095D01*
X131668761Y-80143047D01*
X131644571Y-80191428D01*
X131620380Y-80215619D01*
X131572000Y-80239809D01*
X131426857Y-80239809D01*
X131378476Y-80215619D01*
X131354285Y-80191428D01*
X131233333Y-77699809D02*
X130991428Y-77699809D01*
X130991428Y-77191809D01*
X131378476Y-77240190D02*
X131402666Y-77216000D01*
X131451047Y-77191809D01*
X131572000Y-77191809D01*
X131620380Y-77216000D01*
X131644571Y-77240190D01*
X131668761Y-77288571D01*
X131668761Y-77336952D01*
X131644571Y-77409523D01*
X131354285Y-77699809D01*
X131668761Y-77699809D01*
X131233333Y-75159809D02*
X130991428Y-75159809D01*
X130991428Y-74651809D01*
X131668761Y-75159809D02*
X131378476Y-75159809D01*
X131523619Y-75159809D02*
X131523619Y-74651809D01*
X131475238Y-74724380D01*
X131426857Y-74772761D01*
X131378476Y-74796952D01*
D11*
X177503666Y-96181333D02*
X177503666Y-94403333D01*
X178096333Y-95673333D01*
X178689000Y-94403333D01*
X178689000Y-96181333D01*
X180467000Y-96181333D02*
X179451000Y-96181333D01*
X179959000Y-96181333D02*
X179959000Y-94403333D01*
X179789666Y-94657333D01*
X179620333Y-94826666D01*
X179451000Y-94911333D01*
X124417666Y-96054333D02*
X124417666Y-94276333D01*
X125010333Y-95546333D01*
X125603000Y-94276333D01*
X125603000Y-96054333D01*
X126365000Y-94445666D02*
X126449666Y-94361000D01*
X126619000Y-94276333D01*
X127042333Y-94276333D01*
X127211666Y-94361000D01*
X127296333Y-94445666D01*
X127381000Y-94615000D01*
X127381000Y-94784333D01*
X127296333Y-95038333D01*
X126280333Y-96054333D01*
X127381000Y-96054333D01*
D10*
X188601047Y-69934666D02*
X188842952Y-69934666D01*
X188552666Y-70079809D02*
X188722000Y-69571809D01*
X188891333Y-70079809D01*
X188758285Y-67273714D02*
X188830857Y-67297904D01*
X188855047Y-67322095D01*
X188879238Y-67370476D01*
X188879238Y-67443047D01*
X188855047Y-67491428D01*
X188830857Y-67515619D01*
X188782476Y-67539809D01*
X188588952Y-67539809D01*
X188588952Y-67031809D01*
X188758285Y-67031809D01*
X188806666Y-67056000D01*
X188830857Y-67080190D01*
X188855047Y-67128571D01*
X188855047Y-67176952D01*
X188830857Y-67225333D01*
X188806666Y-67249523D01*
X188758285Y-67273714D01*
X188588952Y-67273714D01*
X116241285Y-67273714D02*
X116313857Y-67297904D01*
X116338047Y-67322095D01*
X116362238Y-67370476D01*
X116362238Y-67443047D01*
X116338047Y-67491428D01*
X116313857Y-67515619D01*
X116265476Y-67539809D01*
X116071952Y-67539809D01*
X116071952Y-67031809D01*
X116241285Y-67031809D01*
X116289666Y-67056000D01*
X116313857Y-67080190D01*
X116338047Y-67128571D01*
X116338047Y-67176952D01*
X116313857Y-67225333D01*
X116289666Y-67249523D01*
X116241285Y-67273714D01*
X116071952Y-67273714D01*
X116084047Y-69934666D02*
X116325952Y-69934666D01*
X116035666Y-70079809D02*
X116205000Y-69571809D01*
X116374333Y-70079809D01*
X172840952Y-64516000D02*
X172792571Y-64491809D01*
X172720000Y-64491809D01*
X172647428Y-64516000D01*
X172599047Y-64564380D01*
X172574857Y-64612761D01*
X172550666Y-64709523D01*
X172550666Y-64782095D01*
X172574857Y-64878857D01*
X172599047Y-64927238D01*
X172647428Y-64975619D01*
X172720000Y-64999809D01*
X172768380Y-64999809D01*
X172840952Y-64975619D01*
X172865142Y-64951428D01*
X172865142Y-64782095D01*
X172768380Y-64782095D01*
X173082857Y-64999809D02*
X173082857Y-64491809D01*
X173373142Y-64999809D01*
X173373142Y-64491809D01*
X173615047Y-64999809D02*
X173615047Y-64491809D01*
X173736000Y-64491809D01*
X173808571Y-64516000D01*
X173856952Y-64564380D01*
X173881142Y-64612761D01*
X173905333Y-64709523D01*
X173905333Y-64782095D01*
X173881142Y-64878857D01*
X173856952Y-64927238D01*
X173808571Y-64975619D01*
X173736000Y-64999809D01*
X173615047Y-64999809D01*
X173191714Y-67031809D02*
X173361047Y-67539809D01*
X173530380Y-67031809D01*
X173699714Y-67539809D02*
X173699714Y-67201142D01*
X173699714Y-67031809D02*
X173675523Y-67056000D01*
X173699714Y-67080190D01*
X173723904Y-67056000D01*
X173699714Y-67031809D01*
X173699714Y-67080190D01*
X131027714Y-67031809D02*
X131197047Y-67539809D01*
X131366380Y-67031809D01*
X131535714Y-67539809D02*
X131535714Y-67201142D01*
X131535714Y-67031809D02*
X131511523Y-67056000D01*
X131535714Y-67080190D01*
X131559904Y-67056000D01*
X131535714Y-67031809D01*
X131535714Y-67080190D01*
X188334952Y-85446809D02*
X188334952Y-84938809D01*
X188334952Y-85180714D02*
X188625238Y-85180714D01*
X188625238Y-85446809D02*
X188625238Y-84938809D01*
X188842952Y-84987190D02*
X188867142Y-84963000D01*
X188915523Y-84938809D01*
X189036476Y-84938809D01*
X189084857Y-84963000D01*
X189109047Y-84987190D01*
X189133238Y-85035571D01*
X189133238Y-85083952D01*
X189109047Y-85156523D01*
X188818761Y-85446809D01*
X189133238Y-85446809D01*
X188334952Y-82779809D02*
X188334952Y-82271809D01*
X188334952Y-82513714D02*
X188625238Y-82513714D01*
X188625238Y-82779809D02*
X188625238Y-82271809D01*
X188818761Y-82271809D02*
X189133238Y-82271809D01*
X188963904Y-82465333D01*
X189036476Y-82465333D01*
X189084857Y-82489523D01*
X189109047Y-82513714D01*
X189133238Y-82562095D01*
X189133238Y-82683047D01*
X189109047Y-82731428D01*
X189084857Y-82755619D01*
X189036476Y-82779809D01*
X188891333Y-82779809D01*
X188842952Y-82755619D01*
X188818761Y-82731428D01*
X188334952Y-87859809D02*
X188334952Y-87351809D01*
X188334952Y-87593714D02*
X188625238Y-87593714D01*
X188625238Y-87859809D02*
X188625238Y-87351809D01*
X189133238Y-87859809D02*
X188842952Y-87859809D01*
X188988095Y-87859809D02*
X188988095Y-87351809D01*
X188939714Y-87424380D01*
X188891333Y-87472761D01*
X188842952Y-87496952D01*
X115690952Y-82652809D02*
X115690952Y-82144809D01*
X115690952Y-82386714D02*
X115981238Y-82386714D01*
X115981238Y-82652809D02*
X115981238Y-82144809D01*
X116174761Y-82144809D02*
X116489238Y-82144809D01*
X116319904Y-82338333D01*
X116392476Y-82338333D01*
X116440857Y-82362523D01*
X116465047Y-82386714D01*
X116489238Y-82435095D01*
X116489238Y-82556047D01*
X116465047Y-82604428D01*
X116440857Y-82628619D01*
X116392476Y-82652809D01*
X116247333Y-82652809D01*
X116198952Y-82628619D01*
X116174761Y-82604428D01*
X115690952Y-85192809D02*
X115690952Y-84684809D01*
X115690952Y-84926714D02*
X115981238Y-84926714D01*
X115981238Y-85192809D02*
X115981238Y-84684809D01*
X116198952Y-84733190D02*
X116223142Y-84709000D01*
X116271523Y-84684809D01*
X116392476Y-84684809D01*
X116440857Y-84709000D01*
X116465047Y-84733190D01*
X116489238Y-84781571D01*
X116489238Y-84829952D01*
X116465047Y-84902523D01*
X116174761Y-85192809D01*
X116489238Y-85192809D01*
X115690952Y-87732809D02*
X115690952Y-87224809D01*
X115690952Y-87466714D02*
X115981238Y-87466714D01*
X115981238Y-87732809D02*
X115981238Y-87224809D01*
X116489238Y-87732809D02*
X116198952Y-87732809D01*
X116344095Y-87732809D02*
X116344095Y-87224809D01*
X116295714Y-87297380D01*
X116247333Y-87345761D01*
X116198952Y-87369952D01*
X188080952Y-64389000D02*
X188032571Y-64364809D01*
X187960000Y-64364809D01*
X187887428Y-64389000D01*
X187839047Y-64437380D01*
X187814857Y-64485761D01*
X187790666Y-64582523D01*
X187790666Y-64655095D01*
X187814857Y-64751857D01*
X187839047Y-64800238D01*
X187887428Y-64848619D01*
X187960000Y-64872809D01*
X188008380Y-64872809D01*
X188080952Y-64848619D01*
X188105142Y-64824428D01*
X188105142Y-64655095D01*
X188008380Y-64655095D01*
X188322857Y-64872809D02*
X188322857Y-64364809D01*
X188613142Y-64872809D01*
X188613142Y-64364809D01*
X188855047Y-64872809D02*
X188855047Y-64364809D01*
X188976000Y-64364809D01*
X189048571Y-64389000D01*
X189096952Y-64437380D01*
X189121142Y-64485761D01*
X189145333Y-64582523D01*
X189145333Y-64655095D01*
X189121142Y-64751857D01*
X189096952Y-64800238D01*
X189048571Y-64848619D01*
X188976000Y-64872809D01*
X188855047Y-64872809D01*
X188080952Y-79756000D02*
X188032571Y-79731809D01*
X187960000Y-79731809D01*
X187887428Y-79756000D01*
X187839047Y-79804380D01*
X187814857Y-79852761D01*
X187790666Y-79949523D01*
X187790666Y-80022095D01*
X187814857Y-80118857D01*
X187839047Y-80167238D01*
X187887428Y-80215619D01*
X187960000Y-80239809D01*
X188008380Y-80239809D01*
X188080952Y-80215619D01*
X188105142Y-80191428D01*
X188105142Y-80022095D01*
X188008380Y-80022095D01*
X188322857Y-80239809D02*
X188322857Y-79731809D01*
X188613142Y-80239809D01*
X188613142Y-79731809D01*
X188855047Y-80239809D02*
X188855047Y-79731809D01*
X188976000Y-79731809D01*
X189048571Y-79756000D01*
X189096952Y-79804380D01*
X189121142Y-79852761D01*
X189145333Y-79949523D01*
X189145333Y-80022095D01*
X189121142Y-80118857D01*
X189096952Y-80167238D01*
X189048571Y-80215619D01*
X188976000Y-80239809D01*
X188855047Y-80239809D01*
X131184952Y-64389000D02*
X131136571Y-64364809D01*
X131064000Y-64364809D01*
X130991428Y-64389000D01*
X130943047Y-64437380D01*
X130918857Y-64485761D01*
X130894666Y-64582523D01*
X130894666Y-64655095D01*
X130918857Y-64751857D01*
X130943047Y-64800238D01*
X130991428Y-64848619D01*
X131064000Y-64872809D01*
X131112380Y-64872809D01*
X131184952Y-64848619D01*
X131209142Y-64824428D01*
X131209142Y-64655095D01*
X131112380Y-64655095D01*
X131426857Y-64872809D02*
X131426857Y-64364809D01*
X131717142Y-64872809D01*
X131717142Y-64364809D01*
X131959047Y-64872809D02*
X131959047Y-64364809D01*
X132080000Y-64364809D01*
X132152571Y-64389000D01*
X132200952Y-64437380D01*
X132225142Y-64485761D01*
X132249333Y-64582523D01*
X132249333Y-64655095D01*
X132225142Y-64751857D01*
X132200952Y-64800238D01*
X132152571Y-64848619D01*
X132080000Y-64872809D01*
X131959047Y-64872809D01*
X115944952Y-64389000D02*
X115896571Y-64364809D01*
X115824000Y-64364809D01*
X115751428Y-64389000D01*
X115703047Y-64437380D01*
X115678857Y-64485761D01*
X115654666Y-64582523D01*
X115654666Y-64655095D01*
X115678857Y-64751857D01*
X115703047Y-64800238D01*
X115751428Y-64848619D01*
X115824000Y-64872809D01*
X115872380Y-64872809D01*
X115944952Y-64848619D01*
X115969142Y-64824428D01*
X115969142Y-64655095D01*
X115872380Y-64655095D01*
X116186857Y-64872809D02*
X116186857Y-64364809D01*
X116477142Y-64872809D01*
X116477142Y-64364809D01*
X116719047Y-64872809D02*
X116719047Y-64364809D01*
X116840000Y-64364809D01*
X116912571Y-64389000D01*
X116960952Y-64437380D01*
X116985142Y-64485761D01*
X117009333Y-64582523D01*
X117009333Y-64655095D01*
X116985142Y-64751857D01*
X116960952Y-64800238D01*
X116912571Y-64848619D01*
X116840000Y-64872809D01*
X116719047Y-64872809D01*
X115944952Y-79629000D02*
X115896571Y-79604809D01*
X115824000Y-79604809D01*
X115751428Y-79629000D01*
X115703047Y-79677380D01*
X115678857Y-79725761D01*
X115654666Y-79822523D01*
X115654666Y-79895095D01*
X115678857Y-79991857D01*
X115703047Y-80040238D01*
X115751428Y-80088619D01*
X115824000Y-80112809D01*
X115872380Y-80112809D01*
X115944952Y-80088619D01*
X115969142Y-80064428D01*
X115969142Y-79895095D01*
X115872380Y-79895095D01*
X116186857Y-80112809D02*
X116186857Y-79604809D01*
X116477142Y-80112809D01*
X116477142Y-79604809D01*
X116719047Y-80112809D02*
X116719047Y-79604809D01*
X116840000Y-79604809D01*
X116912571Y-79629000D01*
X116960952Y-79677380D01*
X116985142Y-79725761D01*
X117009333Y-79822523D01*
X117009333Y-79895095D01*
X116985142Y-79991857D01*
X116960952Y-80040238D01*
X116912571Y-80088619D01*
X116840000Y-80112809D01*
X116719047Y-80112809D01*
X162094333Y-51513619D02*
X162166904Y-51537809D01*
X162287857Y-51537809D01*
X162336238Y-51513619D01*
X162360428Y-51489428D01*
X162384619Y-51441047D01*
X162384619Y-51392666D01*
X162360428Y-51344285D01*
X162336238Y-51320095D01*
X162287857Y-51295904D01*
X162191095Y-51271714D01*
X162142714Y-51247523D01*
X162118523Y-51223333D01*
X162094333Y-51174952D01*
X162094333Y-51126571D01*
X162118523Y-51078190D01*
X162142714Y-51054000D01*
X162191095Y-51029809D01*
X162312047Y-51029809D01*
X162384619Y-51054000D01*
X162578142Y-51513619D02*
X162650714Y-51537809D01*
X162771666Y-51537809D01*
X162820047Y-51513619D01*
X162844238Y-51489428D01*
X162868428Y-51441047D01*
X162868428Y-51392666D01*
X162844238Y-51344285D01*
X162820047Y-51320095D01*
X162771666Y-51295904D01*
X162674904Y-51271714D01*
X162626523Y-51247523D01*
X162602333Y-51223333D01*
X162578142Y-51174952D01*
X162578142Y-51126571D01*
X162602333Y-51078190D01*
X162626523Y-51054000D01*
X162674904Y-51029809D01*
X162795857Y-51029809D01*
X162868428Y-51054000D01*
X163328047Y-51537809D02*
X163086142Y-51537809D01*
X163086142Y-51029809D01*
X164428714Y-51537809D02*
X164428714Y-51029809D01*
X164598047Y-51392666D01*
X164767380Y-51029809D01*
X164767380Y-51537809D01*
X165009285Y-51537809D02*
X165009285Y-51029809D01*
X165227000Y-51513619D02*
X165299571Y-51537809D01*
X165420523Y-51537809D01*
X165468904Y-51513619D01*
X165493095Y-51489428D01*
X165517285Y-51441047D01*
X165517285Y-51392666D01*
X165493095Y-51344285D01*
X165468904Y-51320095D01*
X165420523Y-51295904D01*
X165323761Y-51271714D01*
X165275380Y-51247523D01*
X165251190Y-51223333D01*
X165227000Y-51174952D01*
X165227000Y-51126571D01*
X165251190Y-51078190D01*
X165275380Y-51054000D01*
X165323761Y-51029809D01*
X165444714Y-51029809D01*
X165517285Y-51054000D01*
X165831761Y-51029809D02*
X165928523Y-51029809D01*
X165976904Y-51054000D01*
X166025285Y-51102380D01*
X166049476Y-51199142D01*
X166049476Y-51368476D01*
X166025285Y-51465238D01*
X165976904Y-51513619D01*
X165928523Y-51537809D01*
X165831761Y-51537809D01*
X165783380Y-51513619D01*
X165735000Y-51465238D01*
X165710809Y-51368476D01*
X165710809Y-51199142D01*
X165735000Y-51102380D01*
X165783380Y-51054000D01*
X165831761Y-51029809D01*
X166841714Y-51537809D02*
X166841714Y-51029809D01*
X167011047Y-51392666D01*
X167180380Y-51029809D01*
X167180380Y-51537809D01*
X167519047Y-51029809D02*
X167615809Y-51029809D01*
X167664190Y-51054000D01*
X167712571Y-51102380D01*
X167736761Y-51199142D01*
X167736761Y-51368476D01*
X167712571Y-51465238D01*
X167664190Y-51513619D01*
X167615809Y-51537809D01*
X167519047Y-51537809D01*
X167470666Y-51513619D01*
X167422285Y-51465238D01*
X167398095Y-51368476D01*
X167398095Y-51199142D01*
X167422285Y-51102380D01*
X167470666Y-51054000D01*
X167519047Y-51029809D01*
X167930285Y-51513619D02*
X168002857Y-51537809D01*
X168123809Y-51537809D01*
X168172190Y-51513619D01*
X168196380Y-51489428D01*
X168220571Y-51441047D01*
X168220571Y-51392666D01*
X168196380Y-51344285D01*
X168172190Y-51320095D01*
X168123809Y-51295904D01*
X168027047Y-51271714D01*
X167978666Y-51247523D01*
X167954476Y-51223333D01*
X167930285Y-51174952D01*
X167930285Y-51126571D01*
X167954476Y-51078190D01*
X167978666Y-51054000D01*
X168027047Y-51029809D01*
X168148000Y-51029809D01*
X168220571Y-51054000D01*
X168438285Y-51537809D02*
X168438285Y-51029809D01*
X169877619Y-51489428D02*
X169853428Y-51513619D01*
X169780857Y-51537809D01*
X169732476Y-51537809D01*
X169659904Y-51513619D01*
X169611523Y-51465238D01*
X169587333Y-51416857D01*
X169563142Y-51320095D01*
X169563142Y-51247523D01*
X169587333Y-51150761D01*
X169611523Y-51102380D01*
X169659904Y-51054000D01*
X169732476Y-51029809D01*
X169780857Y-51029809D01*
X169853428Y-51054000D01*
X169877619Y-51078190D01*
X170337238Y-51537809D02*
X170095333Y-51537809D01*
X170095333Y-51029809D01*
X170506571Y-51537809D02*
X170506571Y-51029809D01*
X170796857Y-51537809D02*
X170579142Y-51247523D01*
X170796857Y-51029809D02*
X170506571Y-51320095D01*
X188486142Y-97753714D02*
X188655476Y-97753714D01*
X188728047Y-98019809D02*
X188486142Y-98019809D01*
X188486142Y-97511809D01*
X188728047Y-97511809D01*
X188461952Y-95479809D02*
X188461952Y-94971809D01*
X188752238Y-95479809D02*
X188534523Y-95189523D01*
X188752238Y-94971809D02*
X188461952Y-95262095D01*
X116198952Y-95479809D02*
X116198952Y-94971809D01*
X116489238Y-95479809D02*
X116271523Y-95189523D01*
X116489238Y-94971809D02*
X116198952Y-95262095D01*
X116223142Y-97753714D02*
X116392476Y-97753714D01*
X116465047Y-98019809D02*
X116223142Y-98019809D01*
X116223142Y-97511809D01*
X116465047Y-97511809D01*
X187863238Y-77318809D02*
X188032571Y-77826809D01*
X188201904Y-77318809D01*
X188588952Y-77802619D02*
X188540571Y-77826809D01*
X188443809Y-77826809D01*
X188395428Y-77802619D01*
X188371238Y-77778428D01*
X188347047Y-77730047D01*
X188347047Y-77584904D01*
X188371238Y-77536523D01*
X188395428Y-77512333D01*
X188443809Y-77488142D01*
X188540571Y-77488142D01*
X188588952Y-77512333D01*
X189024380Y-77802619D02*
X188976000Y-77826809D01*
X188879238Y-77826809D01*
X188830857Y-77802619D01*
X188806666Y-77778428D01*
X188782476Y-77730047D01*
X188782476Y-77584904D01*
X188806666Y-77536523D01*
X188830857Y-77512333D01*
X188879238Y-77488142D01*
X188976000Y-77488142D01*
X189024380Y-77512333D01*
X187863238Y-61951809D02*
X188032571Y-62459809D01*
X188201904Y-61951809D01*
X188588952Y-62435619D02*
X188540571Y-62459809D01*
X188443809Y-62459809D01*
X188395428Y-62435619D01*
X188371238Y-62411428D01*
X188347047Y-62363047D01*
X188347047Y-62217904D01*
X188371238Y-62169523D01*
X188395428Y-62145333D01*
X188443809Y-62121142D01*
X188540571Y-62121142D01*
X188588952Y-62145333D01*
X189024380Y-62435619D02*
X188976000Y-62459809D01*
X188879238Y-62459809D01*
X188830857Y-62435619D01*
X188806666Y-62411428D01*
X188782476Y-62363047D01*
X188782476Y-62217904D01*
X188806666Y-62169523D01*
X188830857Y-62145333D01*
X188879238Y-62121142D01*
X188976000Y-62121142D01*
X189024380Y-62145333D01*
X172623238Y-61951809D02*
X172792571Y-62459809D01*
X172961904Y-61951809D01*
X173348952Y-62435619D02*
X173300571Y-62459809D01*
X173203809Y-62459809D01*
X173155428Y-62435619D01*
X173131238Y-62411428D01*
X173107047Y-62363047D01*
X173107047Y-62217904D01*
X173131238Y-62169523D01*
X173155428Y-62145333D01*
X173203809Y-62121142D01*
X173300571Y-62121142D01*
X173348952Y-62145333D01*
X173784380Y-62435619D02*
X173736000Y-62459809D01*
X173639238Y-62459809D01*
X173590857Y-62435619D01*
X173566666Y-62411428D01*
X173542476Y-62363047D01*
X173542476Y-62217904D01*
X173566666Y-62169523D01*
X173590857Y-62145333D01*
X173639238Y-62121142D01*
X173736000Y-62121142D01*
X173784380Y-62145333D01*
X130967238Y-61951809D02*
X131136571Y-62459809D01*
X131305904Y-61951809D01*
X131692952Y-62435619D02*
X131644571Y-62459809D01*
X131547809Y-62459809D01*
X131499428Y-62435619D01*
X131475238Y-62411428D01*
X131451047Y-62363047D01*
X131451047Y-62217904D01*
X131475238Y-62169523D01*
X131499428Y-62145333D01*
X131547809Y-62121142D01*
X131644571Y-62121142D01*
X131692952Y-62145333D01*
X132128380Y-62435619D02*
X132080000Y-62459809D01*
X131983238Y-62459809D01*
X131934857Y-62435619D01*
X131910666Y-62411428D01*
X131886476Y-62363047D01*
X131886476Y-62217904D01*
X131910666Y-62169523D01*
X131934857Y-62145333D01*
X131983238Y-62121142D01*
X132080000Y-62121142D01*
X132128380Y-62145333D01*
X115727238Y-61951809D02*
X115896571Y-62459809D01*
X116065904Y-61951809D01*
X116452952Y-62435619D02*
X116404571Y-62459809D01*
X116307809Y-62459809D01*
X116259428Y-62435619D01*
X116235238Y-62411428D01*
X116211047Y-62363047D01*
X116211047Y-62217904D01*
X116235238Y-62169523D01*
X116259428Y-62145333D01*
X116307809Y-62121142D01*
X116404571Y-62121142D01*
X116452952Y-62145333D01*
X116888380Y-62435619D02*
X116840000Y-62459809D01*
X116743238Y-62459809D01*
X116694857Y-62435619D01*
X116670666Y-62411428D01*
X116646476Y-62363047D01*
X116646476Y-62217904D01*
X116670666Y-62169523D01*
X116694857Y-62145333D01*
X116743238Y-62121142D01*
X116840000Y-62121142D01*
X116888380Y-62145333D01*
X115727238Y-77191809D02*
X115896571Y-77699809D01*
X116065904Y-77191809D01*
X116452952Y-77675619D02*
X116404571Y-77699809D01*
X116307809Y-77699809D01*
X116259428Y-77675619D01*
X116235238Y-77651428D01*
X116211047Y-77603047D01*
X116211047Y-77457904D01*
X116235238Y-77409523D01*
X116259428Y-77385333D01*
X116307809Y-77361142D01*
X116404571Y-77361142D01*
X116452952Y-77385333D01*
X116888380Y-77675619D02*
X116840000Y-77699809D01*
X116743238Y-77699809D01*
X116694857Y-77675619D01*
X116670666Y-77651428D01*
X116646476Y-77603047D01*
X116646476Y-77457904D01*
X116670666Y-77409523D01*
X116694857Y-77385333D01*
X116743238Y-77361142D01*
X116840000Y-77361142D01*
X116888380Y-77385333D01*
X115854238Y-101448809D02*
X116023571Y-101956809D01*
X116192904Y-101448809D01*
X116579952Y-101932619D02*
X116531571Y-101956809D01*
X116434809Y-101956809D01*
X116386428Y-101932619D01*
X116362238Y-101908428D01*
X116338047Y-101860047D01*
X116338047Y-101714904D01*
X116362238Y-101666523D01*
X116386428Y-101642333D01*
X116434809Y-101618142D01*
X116531571Y-101618142D01*
X116579952Y-101642333D01*
X117015380Y-101932619D02*
X116967000Y-101956809D01*
X116870238Y-101956809D01*
X116821857Y-101932619D01*
X116797666Y-101908428D01*
X116773476Y-101860047D01*
X116773476Y-101714904D01*
X116797666Y-101666523D01*
X116821857Y-101642333D01*
X116870238Y-101618142D01*
X116967000Y-101618142D01*
X117015380Y-101642333D01*
X187609238Y-100051809D02*
X187778571Y-100559809D01*
X187947904Y-100051809D01*
X188334952Y-100535619D02*
X188286571Y-100559809D01*
X188189809Y-100559809D01*
X188141428Y-100535619D01*
X188117238Y-100511428D01*
X188093047Y-100463047D01*
X188093047Y-100317904D01*
X188117238Y-100269523D01*
X188141428Y-100245333D01*
X188189809Y-100221142D01*
X188286571Y-100221142D01*
X188334952Y-100245333D01*
X188770380Y-100535619D02*
X188722000Y-100559809D01*
X188625238Y-100559809D01*
X188576857Y-100535619D01*
X188552666Y-100511428D01*
X188528476Y-100463047D01*
X188528476Y-100317904D01*
X188552666Y-100269523D01*
X188576857Y-100245333D01*
X188625238Y-100221142D01*
X188722000Y-100221142D01*
X188770380Y-100245333D01*
D12*
X174150976Y-54495619D02*
X174198595Y-54448000D01*
X174293833Y-54400380D01*
X174531928Y-54400380D01*
X174627166Y-54448000D01*
X174674785Y-54495619D01*
X174722404Y-54590857D01*
X174722404Y-54686095D01*
X174674785Y-54828952D01*
X174103357Y-55400380D01*
X174722404Y-55400380D01*
X175484309Y-54876571D02*
X175627166Y-54924190D01*
X175674785Y-54971809D01*
X175722404Y-55067047D01*
X175722404Y-55209904D01*
X175674785Y-55305142D01*
X175627166Y-55352761D01*
X175531928Y-55400380D01*
X175150976Y-55400380D01*
X175150976Y-54400380D01*
X175484309Y-54400380D01*
X175579547Y-54448000D01*
X175627166Y-54495619D01*
X175674785Y-54590857D01*
X175674785Y-54686095D01*
X175627166Y-54781333D01*
X175579547Y-54828952D01*
X175484309Y-54876571D01*
X175150976Y-54876571D01*
X176627166Y-55400380D02*
X176150976Y-55400380D01*
X176150976Y-54400380D01*
X176960500Y-55400380D02*
X176960500Y-54400380D01*
X177198595Y-54400380D01*
X177341452Y-54448000D01*
X177436690Y-54543238D01*
X177484309Y-54638476D01*
X177531928Y-54828952D01*
X177531928Y-54971809D01*
X177484309Y-55162285D01*
X177436690Y-55257523D01*
X177341452Y-55352761D01*
X177198595Y-55400380D01*
X176960500Y-55400380D01*
X178531928Y-55305142D02*
X178484309Y-55352761D01*
X178341452Y-55400380D01*
X178246214Y-55400380D01*
X178103357Y-55352761D01*
X178008119Y-55257523D01*
X177960500Y-55162285D01*
X177912880Y-54971809D01*
X177912880Y-54828952D01*
X177960500Y-54638476D01*
X178008119Y-54543238D01*
X178103357Y-54448000D01*
X178246214Y-54400380D01*
X178341452Y-54400380D01*
X178484309Y-54448000D01*
X178531928Y-54495619D01*
X180293833Y-55305142D02*
X180246214Y-55352761D01*
X180103357Y-55400380D01*
X180008119Y-55400380D01*
X179865261Y-55352761D01*
X179770023Y-55257523D01*
X179722404Y-55162285D01*
X179674785Y-54971809D01*
X179674785Y-54828952D01*
X179722404Y-54638476D01*
X179770023Y-54543238D01*
X179865261Y-54448000D01*
X180008119Y-54400380D01*
X180103357Y-54400380D01*
X180246214Y-54448000D01*
X180293833Y-54495619D01*
X180865261Y-55400380D02*
X180770023Y-55352761D01*
X180722404Y-55305142D01*
X180674785Y-55209904D01*
X180674785Y-54924190D01*
X180722404Y-54828952D01*
X180770023Y-54781333D01*
X180865261Y-54733714D01*
X181008119Y-54733714D01*
X181103357Y-54781333D01*
X181150976Y-54828952D01*
X181198595Y-54924190D01*
X181198595Y-55209904D01*
X181150976Y-55305142D01*
X181103357Y-55352761D01*
X181008119Y-55400380D01*
X180865261Y-55400380D01*
X181627166Y-54733714D02*
X181627166Y-55400380D01*
X181627166Y-54828952D02*
X181674785Y-54781333D01*
X181770023Y-54733714D01*
X181912880Y-54733714D01*
X182008119Y-54781333D01*
X182055738Y-54876571D01*
X182055738Y-55400380D01*
X182389071Y-54733714D02*
X182770023Y-54733714D01*
X182531928Y-54400380D02*
X182531928Y-55257523D01*
X182579547Y-55352761D01*
X182674785Y-55400380D01*
X182770023Y-55400380D01*
X183103357Y-55400380D02*
X183103357Y-54733714D01*
X183103357Y-54924190D02*
X183150976Y-54828952D01*
X183198595Y-54781333D01*
X183293833Y-54733714D01*
X183389071Y-54733714D01*
X183865261Y-55400380D02*
X183770023Y-55352761D01*
X183722404Y-55305142D01*
X183674785Y-55209904D01*
X183674785Y-54924190D01*
X183722404Y-54828952D01*
X183770023Y-54781333D01*
X183865261Y-54733714D01*
X184008119Y-54733714D01*
X184103357Y-54781333D01*
X184150976Y-54828952D01*
X184198595Y-54924190D01*
X184198595Y-55209904D01*
X184150976Y-55305142D01*
X184103357Y-55352761D01*
X184008119Y-55400380D01*
X183865261Y-55400380D01*
X184770023Y-55400380D02*
X184674785Y-55352761D01*
X184627166Y-55257523D01*
X184627166Y-54400380D01*
X185293833Y-55400380D02*
X185198595Y-55352761D01*
X185150976Y-55257523D01*
X185150976Y-54400380D01*
X186055738Y-55352761D02*
X185960500Y-55400380D01*
X185770023Y-55400380D01*
X185674785Y-55352761D01*
X185627166Y-55257523D01*
X185627166Y-54876571D01*
X185674785Y-54781333D01*
X185770023Y-54733714D01*
X185960500Y-54733714D01*
X186055738Y-54781333D01*
X186103357Y-54876571D01*
X186103357Y-54971809D01*
X185627166Y-55067047D01*
X186531928Y-55400380D02*
X186531928Y-54733714D01*
X186531928Y-54924190D02*
X186579547Y-54828952D01*
X186627166Y-54781333D01*
X186722404Y-54733714D01*
X186817642Y-54733714D01*
X174198595Y-57010380D02*
X174198595Y-56010380D01*
X174579547Y-56010380D01*
X174674785Y-56058000D01*
X174722404Y-56105619D01*
X174770023Y-56200857D01*
X174770023Y-56343714D01*
X174722404Y-56438952D01*
X174674785Y-56486571D01*
X174579547Y-56534190D01*
X174198595Y-56534190D01*
X175770023Y-56915142D02*
X175722404Y-56962761D01*
X175579547Y-57010380D01*
X175484309Y-57010380D01*
X175341452Y-56962761D01*
X175246214Y-56867523D01*
X175198595Y-56772285D01*
X175150976Y-56581809D01*
X175150976Y-56438952D01*
X175198595Y-56248476D01*
X175246214Y-56153238D01*
X175341452Y-56058000D01*
X175484309Y-56010380D01*
X175579547Y-56010380D01*
X175722404Y-56058000D01*
X175770023Y-56105619D01*
X176531928Y-56486571D02*
X176674785Y-56534190D01*
X176722404Y-56581809D01*
X176770023Y-56677047D01*
X176770023Y-56819904D01*
X176722404Y-56915142D01*
X176674785Y-56962761D01*
X176579547Y-57010380D01*
X176198595Y-57010380D01*
X176198595Y-56010380D01*
X176531928Y-56010380D01*
X176627166Y-56058000D01*
X176674785Y-56105619D01*
X176722404Y-56200857D01*
X176722404Y-56296095D01*
X176674785Y-56391333D01*
X176627166Y-56438952D01*
X176531928Y-56486571D01*
X176198595Y-56486571D01*
X177960500Y-57010380D02*
X177960500Y-56010380D01*
X178198595Y-56010380D01*
X178341452Y-56058000D01*
X178436690Y-56153238D01*
X178484309Y-56248476D01*
X178531928Y-56438952D01*
X178531928Y-56581809D01*
X178484309Y-56772285D01*
X178436690Y-56867523D01*
X178341452Y-56962761D01*
X178198595Y-57010380D01*
X177960500Y-57010380D01*
X179341452Y-56962761D02*
X179246214Y-57010380D01*
X179055738Y-57010380D01*
X178960500Y-56962761D01*
X178912880Y-56867523D01*
X178912880Y-56486571D01*
X178960500Y-56391333D01*
X179055738Y-56343714D01*
X179246214Y-56343714D01*
X179341452Y-56391333D01*
X179389071Y-56486571D01*
X179389071Y-56581809D01*
X178912880Y-56677047D01*
X179770023Y-56962761D02*
X179865261Y-57010380D01*
X180055738Y-57010380D01*
X180150976Y-56962761D01*
X180198595Y-56867523D01*
X180198595Y-56819904D01*
X180150976Y-56724666D01*
X180055738Y-56677047D01*
X179912880Y-56677047D01*
X179817642Y-56629428D01*
X179770023Y-56534190D01*
X179770023Y-56486571D01*
X179817642Y-56391333D01*
X179912880Y-56343714D01*
X180055738Y-56343714D01*
X180150976Y-56391333D01*
X180627166Y-57010380D02*
X180627166Y-56343714D01*
X180627166Y-56010380D02*
X180579547Y-56058000D01*
X180627166Y-56105619D01*
X180674785Y-56058000D01*
X180627166Y-56010380D01*
X180627166Y-56105619D01*
X181531928Y-56343714D02*
X181531928Y-57153238D01*
X181484309Y-57248476D01*
X181436690Y-57296095D01*
X181341452Y-57343714D01*
X181198595Y-57343714D01*
X181103357Y-57296095D01*
X181531928Y-56962761D02*
X181436690Y-57010380D01*
X181246214Y-57010380D01*
X181150976Y-56962761D01*
X181103357Y-56915142D01*
X181055738Y-56819904D01*
X181055738Y-56534190D01*
X181103357Y-56438952D01*
X181150976Y-56391333D01*
X181246214Y-56343714D01*
X181436690Y-56343714D01*
X181531928Y-56391333D01*
X182008119Y-56343714D02*
X182008119Y-57010380D01*
X182008119Y-56438952D02*
X182055738Y-56391333D01*
X182150976Y-56343714D01*
X182293833Y-56343714D01*
X182389071Y-56391333D01*
X182436690Y-56486571D01*
X182436690Y-57010380D01*
X184008119Y-56486571D02*
X184150976Y-56534190D01*
X184198595Y-56581809D01*
X184246214Y-56677047D01*
X184246214Y-56819904D01*
X184198595Y-56915142D01*
X184150976Y-56962761D01*
X184055738Y-57010380D01*
X183674785Y-57010380D01*
X183674785Y-56010380D01*
X184008119Y-56010380D01*
X184103357Y-56058000D01*
X184150976Y-56105619D01*
X184198595Y-56200857D01*
X184198595Y-56296095D01*
X184150976Y-56391333D01*
X184103357Y-56438952D01*
X184008119Y-56486571D01*
X183674785Y-56486571D01*
X184579547Y-56343714D02*
X184817642Y-57010380D01*
X185055738Y-56343714D02*
X184817642Y-57010380D01*
X184722404Y-57248476D01*
X184674785Y-57296095D01*
X184579547Y-57343714D01*
X186198595Y-57010380D02*
X186198595Y-56010380D01*
X186770023Y-57010380D02*
X186341452Y-56438952D01*
X186770023Y-56010380D02*
X186198595Y-56581809D01*
X187150976Y-56724666D02*
X187627166Y-56724666D01*
X187055738Y-57010380D02*
X187389071Y-56010380D01*
X187722404Y-57010380D01*
X187960500Y-56010380D02*
X188198595Y-57010380D01*
X188389071Y-56296095D01*
X188579547Y-57010380D01*
X188817642Y-56010380D01*
X189150976Y-56724666D02*
X189627166Y-56724666D01*
X189055738Y-57010380D02*
X189389071Y-56010380D01*
X189722404Y-57010380D01*
X190055738Y-57010380D02*
X190055738Y-56010380D01*
X173347190Y-52728761D02*
X173490047Y-52776380D01*
X173728142Y-52776380D01*
X173823380Y-52728761D01*
X173871000Y-52681142D01*
X173918619Y-52585904D01*
X173918619Y-52490666D01*
X173871000Y-52395428D01*
X173823380Y-52347809D01*
X173728142Y-52300190D01*
X173537666Y-52252571D01*
X173442428Y-52204952D01*
X173394809Y-52157333D01*
X173347190Y-52062095D01*
X173347190Y-51966857D01*
X173394809Y-51871619D01*
X173442428Y-51824000D01*
X173537666Y-51776380D01*
X173775761Y-51776380D01*
X173918619Y-51824000D01*
X174347190Y-52776380D02*
X174347190Y-51776380D01*
X174728142Y-51776380D01*
X174823380Y-51824000D01*
X174871000Y-51871619D01*
X174918619Y-51966857D01*
X174918619Y-52109714D01*
X174871000Y-52204952D01*
X174823380Y-52252571D01*
X174728142Y-52300190D01*
X174347190Y-52300190D01*
X175347190Y-52776380D02*
X175347190Y-51776380D01*
X180618142Y-60237666D02*
X181094333Y-60237666D01*
X180522904Y-60523380D02*
X180856238Y-59523380D01*
X181189571Y-60523380D01*
X182094333Y-60428142D02*
X182046714Y-60475761D01*
X181903857Y-60523380D01*
X181808619Y-60523380D01*
X181665761Y-60475761D01*
X181570523Y-60380523D01*
X181522904Y-60285285D01*
X181475285Y-60094809D01*
X181475285Y-59951952D01*
X181522904Y-59761476D01*
X181570523Y-59666238D01*
X181665761Y-59571000D01*
X181808619Y-59523380D01*
X181903857Y-59523380D01*
X182046714Y-59571000D01*
X182094333Y-59618619D01*
X182475285Y-60475761D02*
X182618142Y-60523380D01*
X182856238Y-60523380D01*
X182951476Y-60475761D01*
X182999095Y-60428142D01*
X183046714Y-60332904D01*
X183046714Y-60237666D01*
X182999095Y-60142428D01*
X182951476Y-60094809D01*
X182856238Y-60047190D01*
X182665761Y-59999571D01*
X182570523Y-59951952D01*
X182522904Y-59904333D01*
X182475285Y-59809095D01*
X182475285Y-59713857D01*
X182522904Y-59618619D01*
X182570523Y-59571000D01*
X182665761Y-59523380D01*
X182903857Y-59523380D01*
X183046714Y-59571000D01*
X183380047Y-59523380D02*
X184046714Y-59523380D01*
X183618142Y-60523380D01*
X184380047Y-59618619D02*
X184427666Y-59571000D01*
X184522904Y-59523380D01*
X184761000Y-59523380D01*
X184856238Y-59571000D01*
X184903857Y-59618619D01*
X184951476Y-59713857D01*
X184951476Y-59809095D01*
X184903857Y-59951952D01*
X184332428Y-60523380D01*
X184951476Y-60523380D01*
X185808619Y-59856714D02*
X185808619Y-60523380D01*
X185570523Y-59475761D02*
X185332428Y-60190047D01*
X185951476Y-60190047D01*
X182935904Y-72064571D02*
X183269238Y-72064571D01*
X183412095Y-72588380D02*
X182935904Y-72588380D01*
X182935904Y-71588380D01*
X183412095Y-71588380D01*
X183840666Y-71921714D02*
X183840666Y-72588380D01*
X183840666Y-72016952D02*
X183888285Y-71969333D01*
X183983523Y-71921714D01*
X184126380Y-71921714D01*
X184221619Y-71969333D01*
X184269238Y-72064571D01*
X184269238Y-72588380D01*
X185174000Y-72540761D02*
X185078761Y-72588380D01*
X184888285Y-72588380D01*
X184793047Y-72540761D01*
X184745428Y-72493142D01*
X184697809Y-72397904D01*
X184697809Y-72112190D01*
X184745428Y-72016952D01*
X184793047Y-71969333D01*
X184888285Y-71921714D01*
X185078761Y-71921714D01*
X185174000Y-71969333D01*
X185745428Y-72588380D02*
X185650190Y-72540761D01*
X185602571Y-72493142D01*
X185554952Y-72397904D01*
X185554952Y-72112190D01*
X185602571Y-72016952D01*
X185650190Y-71969333D01*
X185745428Y-71921714D01*
X185888285Y-71921714D01*
X185983523Y-71969333D01*
X186031142Y-72016952D01*
X186078761Y-72112190D01*
X186078761Y-72397904D01*
X186031142Y-72493142D01*
X185983523Y-72540761D01*
X185888285Y-72588380D01*
X185745428Y-72588380D01*
X186935904Y-72588380D02*
X186935904Y-71588380D01*
X186935904Y-72540761D02*
X186840666Y-72588380D01*
X186650190Y-72588380D01*
X186554952Y-72540761D01*
X186507333Y-72493142D01*
X186459714Y-72397904D01*
X186459714Y-72112190D01*
X186507333Y-72016952D01*
X186554952Y-71969333D01*
X186650190Y-71921714D01*
X186840666Y-71921714D01*
X186935904Y-71969333D01*
X187793047Y-72540761D02*
X187697809Y-72588380D01*
X187507333Y-72588380D01*
X187412095Y-72540761D01*
X187364476Y-72445523D01*
X187364476Y-72064571D01*
X187412095Y-71969333D01*
X187507333Y-71921714D01*
X187697809Y-71921714D01*
X187793047Y-71969333D01*
X187840666Y-72064571D01*
X187840666Y-72159809D01*
X187364476Y-72255047D01*
X188269238Y-72588380D02*
X188269238Y-71921714D01*
X188269238Y-72112190D02*
X188316857Y-72016952D01*
X188364476Y-71969333D01*
X188459714Y-71921714D01*
X188554952Y-71921714D01*
X182523190Y-90495380D02*
X182523190Y-89495380D01*
X182523190Y-89971571D02*
X183094619Y-89971571D01*
X183094619Y-90495380D02*
X183094619Y-89495380D01*
X183999380Y-90495380D02*
X183999380Y-89971571D01*
X183951761Y-89876333D01*
X183856523Y-89828714D01*
X183666047Y-89828714D01*
X183570809Y-89876333D01*
X183999380Y-90447761D02*
X183904142Y-90495380D01*
X183666047Y-90495380D01*
X183570809Y-90447761D01*
X183523190Y-90352523D01*
X183523190Y-90257285D01*
X183570809Y-90162047D01*
X183666047Y-90114428D01*
X183904142Y-90114428D01*
X183999380Y-90066809D01*
X184618428Y-90495380D02*
X184523190Y-90447761D01*
X184475571Y-90352523D01*
X184475571Y-89495380D01*
X185142238Y-90495380D02*
X185047000Y-90447761D01*
X184999380Y-90352523D01*
X184999380Y-89495380D01*
X185475571Y-90447761D02*
X185618428Y-90495380D01*
X185856523Y-90495380D01*
X185951761Y-90447761D01*
X185999380Y-90400142D01*
X186047000Y-90304904D01*
X186047000Y-90209666D01*
X185999380Y-90114428D01*
X185951761Y-90066809D01*
X185856523Y-90019190D01*
X185666047Y-89971571D01*
X185570809Y-89923952D01*
X185523190Y-89876333D01*
X185475571Y-89781095D01*
X185475571Y-89685857D01*
X185523190Y-89590619D01*
X185570809Y-89543000D01*
X185666047Y-89495380D01*
X185904142Y-89495380D01*
X186047000Y-89543000D01*
X186856523Y-90447761D02*
X186761285Y-90495380D01*
X186570809Y-90495380D01*
X186475571Y-90447761D01*
X186427952Y-90352523D01*
X186427952Y-89971571D01*
X186475571Y-89876333D01*
X186570809Y-89828714D01*
X186761285Y-89828714D01*
X186856523Y-89876333D01*
X186904142Y-89971571D01*
X186904142Y-90066809D01*
X186427952Y-90162047D01*
X187332714Y-89828714D02*
X187332714Y-90495380D01*
X187332714Y-89923952D02*
X187380333Y-89876333D01*
X187475571Y-89828714D01*
X187618428Y-89828714D01*
X187713666Y-89876333D01*
X187761285Y-89971571D01*
X187761285Y-90495380D01*
X188189857Y-90447761D02*
X188285095Y-90495380D01*
X188475571Y-90495380D01*
X188570809Y-90447761D01*
X188618428Y-90352523D01*
X188618428Y-90304904D01*
X188570809Y-90209666D01*
X188475571Y-90162047D01*
X188332714Y-90162047D01*
X188237476Y-90114428D01*
X188189857Y-90019190D01*
X188189857Y-89971571D01*
X188237476Y-89876333D01*
X188332714Y-89828714D01*
X188475571Y-89828714D01*
X188570809Y-89876333D01*
X190246238Y-104465380D02*
X190246238Y-103465380D01*
X190627190Y-103465380D01*
X190722428Y-103513000D01*
X190770047Y-103560619D01*
X190817666Y-103655857D01*
X190817666Y-103798714D01*
X190770047Y-103893952D01*
X190722428Y-103941571D01*
X190627190Y-103989190D01*
X190246238Y-103989190D01*
X191246238Y-104465380D02*
X191246238Y-103465380D01*
X191674809Y-104465380D02*
X191674809Y-103941571D01*
X191627190Y-103846333D01*
X191531952Y-103798714D01*
X191389095Y-103798714D01*
X191293857Y-103846333D01*
X191246238Y-103893952D01*
X192293857Y-104465380D02*
X192198619Y-104417761D01*
X192151000Y-104370142D01*
X192103380Y-104274904D01*
X192103380Y-103989190D01*
X192151000Y-103893952D01*
X192198619Y-103846333D01*
X192293857Y-103798714D01*
X192436714Y-103798714D01*
X192531952Y-103846333D01*
X192579571Y-103893952D01*
X192627190Y-103989190D01*
X192627190Y-104274904D01*
X192579571Y-104370142D01*
X192531952Y-104417761D01*
X192436714Y-104465380D01*
X192293857Y-104465380D01*
X192912904Y-103798714D02*
X193293857Y-103798714D01*
X193055761Y-103465380D02*
X193055761Y-104322523D01*
X193103380Y-104417761D01*
X193198619Y-104465380D01*
X193293857Y-104465380D01*
X193770047Y-104465380D02*
X193674809Y-104417761D01*
X193627190Y-104370142D01*
X193579571Y-104274904D01*
X193579571Y-103989190D01*
X193627190Y-103893952D01*
X193674809Y-103846333D01*
X193770047Y-103798714D01*
X193912904Y-103798714D01*
X194008142Y-103846333D01*
X194055761Y-103893952D01*
X194103380Y-103989190D01*
X194103380Y-104274904D01*
X194055761Y-104370142D01*
X194008142Y-104417761D01*
X193912904Y-104465380D01*
X193770047Y-104465380D01*
X180697476Y-76017380D02*
X180697476Y-75017380D01*
X181030809Y-75731666D01*
X181364142Y-75017380D01*
X181364142Y-76017380D01*
X181983190Y-76017380D02*
X181887952Y-75969761D01*
X181840333Y-75922142D01*
X181792714Y-75826904D01*
X181792714Y-75541190D01*
X181840333Y-75445952D01*
X181887952Y-75398333D01*
X181983190Y-75350714D01*
X182126047Y-75350714D01*
X182221285Y-75398333D01*
X182268904Y-75445952D01*
X182316523Y-75541190D01*
X182316523Y-75826904D01*
X182268904Y-75922142D01*
X182221285Y-75969761D01*
X182126047Y-76017380D01*
X181983190Y-76017380D01*
X182602238Y-75350714D02*
X182983190Y-75350714D01*
X182745095Y-75017380D02*
X182745095Y-75874523D01*
X182792714Y-75969761D01*
X182887952Y-76017380D01*
X182983190Y-76017380D01*
X183459380Y-76017380D02*
X183364142Y-75969761D01*
X183316523Y-75922142D01*
X183268904Y-75826904D01*
X183268904Y-75541190D01*
X183316523Y-75445952D01*
X183364142Y-75398333D01*
X183459380Y-75350714D01*
X183602238Y-75350714D01*
X183697476Y-75398333D01*
X183745095Y-75445952D01*
X183792714Y-75541190D01*
X183792714Y-75826904D01*
X183745095Y-75922142D01*
X183697476Y-75969761D01*
X183602238Y-76017380D01*
X183459380Y-76017380D01*
X184221285Y-76017380D02*
X184221285Y-75350714D01*
X184221285Y-75541190D02*
X184268904Y-75445952D01*
X184316523Y-75398333D01*
X184411761Y-75350714D01*
X184507000Y-75350714D01*
X185364142Y-76017380D02*
X184792714Y-76017380D01*
X185078428Y-76017380D02*
X185078428Y-75017380D01*
X184983190Y-75160238D01*
X184887952Y-75255476D01*
X184792714Y-75303095D01*
X118769142Y-60237666D02*
X119245333Y-60237666D01*
X118673904Y-60523380D02*
X119007238Y-59523380D01*
X119340571Y-60523380D01*
X120245333Y-60428142D02*
X120197714Y-60475761D01*
X120054857Y-60523380D01*
X119959619Y-60523380D01*
X119816761Y-60475761D01*
X119721523Y-60380523D01*
X119673904Y-60285285D01*
X119626285Y-60094809D01*
X119626285Y-59951952D01*
X119673904Y-59761476D01*
X119721523Y-59666238D01*
X119816761Y-59571000D01*
X119959619Y-59523380D01*
X120054857Y-59523380D01*
X120197714Y-59571000D01*
X120245333Y-59618619D01*
X120626285Y-60475761D02*
X120769142Y-60523380D01*
X121007238Y-60523380D01*
X121102476Y-60475761D01*
X121150095Y-60428142D01*
X121197714Y-60332904D01*
X121197714Y-60237666D01*
X121150095Y-60142428D01*
X121102476Y-60094809D01*
X121007238Y-60047190D01*
X120816761Y-59999571D01*
X120721523Y-59951952D01*
X120673904Y-59904333D01*
X120626285Y-59809095D01*
X120626285Y-59713857D01*
X120673904Y-59618619D01*
X120721523Y-59571000D01*
X120816761Y-59523380D01*
X121054857Y-59523380D01*
X121197714Y-59571000D01*
X121531047Y-59523380D02*
X122197714Y-59523380D01*
X121769142Y-60523380D01*
X122531047Y-59618619D02*
X122578666Y-59571000D01*
X122673904Y-59523380D01*
X122912000Y-59523380D01*
X123007238Y-59571000D01*
X123054857Y-59618619D01*
X123102476Y-59713857D01*
X123102476Y-59809095D01*
X123054857Y-59951952D01*
X122483428Y-60523380D01*
X123102476Y-60523380D01*
X123959619Y-59856714D02*
X123959619Y-60523380D01*
X123721523Y-59475761D02*
X123483428Y-60190047D01*
X124102476Y-60190047D01*
X116006904Y-71937571D02*
X116340238Y-71937571D01*
X116483095Y-72461380D02*
X116006904Y-72461380D01*
X116006904Y-71461380D01*
X116483095Y-71461380D01*
X116911666Y-71794714D02*
X116911666Y-72461380D01*
X116911666Y-71889952D02*
X116959285Y-71842333D01*
X117054523Y-71794714D01*
X117197380Y-71794714D01*
X117292619Y-71842333D01*
X117340238Y-71937571D01*
X117340238Y-72461380D01*
X118245000Y-72413761D02*
X118149761Y-72461380D01*
X117959285Y-72461380D01*
X117864047Y-72413761D01*
X117816428Y-72366142D01*
X117768809Y-72270904D01*
X117768809Y-71985190D01*
X117816428Y-71889952D01*
X117864047Y-71842333D01*
X117959285Y-71794714D01*
X118149761Y-71794714D01*
X118245000Y-71842333D01*
X118816428Y-72461380D02*
X118721190Y-72413761D01*
X118673571Y-72366142D01*
X118625952Y-72270904D01*
X118625952Y-71985190D01*
X118673571Y-71889952D01*
X118721190Y-71842333D01*
X118816428Y-71794714D01*
X118959285Y-71794714D01*
X119054523Y-71842333D01*
X119102142Y-71889952D01*
X119149761Y-71985190D01*
X119149761Y-72270904D01*
X119102142Y-72366142D01*
X119054523Y-72413761D01*
X118959285Y-72461380D01*
X118816428Y-72461380D01*
X120006904Y-72461380D02*
X120006904Y-71461380D01*
X120006904Y-72413761D02*
X119911666Y-72461380D01*
X119721190Y-72461380D01*
X119625952Y-72413761D01*
X119578333Y-72366142D01*
X119530714Y-72270904D01*
X119530714Y-71985190D01*
X119578333Y-71889952D01*
X119625952Y-71842333D01*
X119721190Y-71794714D01*
X119911666Y-71794714D01*
X120006904Y-71842333D01*
X120864047Y-72413761D02*
X120768809Y-72461380D01*
X120578333Y-72461380D01*
X120483095Y-72413761D01*
X120435476Y-72318523D01*
X120435476Y-71937571D01*
X120483095Y-71842333D01*
X120578333Y-71794714D01*
X120768809Y-71794714D01*
X120864047Y-71842333D01*
X120911666Y-71937571D01*
X120911666Y-72032809D01*
X120435476Y-72128047D01*
X121340238Y-72461380D02*
X121340238Y-71794714D01*
X121340238Y-71985190D02*
X121387857Y-71889952D01*
X121435476Y-71842333D01*
X121530714Y-71794714D01*
X121625952Y-71794714D01*
X119610476Y-75890380D02*
X119610476Y-74890380D01*
X119943809Y-75604666D01*
X120277142Y-74890380D01*
X120277142Y-75890380D01*
X120896190Y-75890380D02*
X120800952Y-75842761D01*
X120753333Y-75795142D01*
X120705714Y-75699904D01*
X120705714Y-75414190D01*
X120753333Y-75318952D01*
X120800952Y-75271333D01*
X120896190Y-75223714D01*
X121039047Y-75223714D01*
X121134285Y-75271333D01*
X121181904Y-75318952D01*
X121229523Y-75414190D01*
X121229523Y-75699904D01*
X121181904Y-75795142D01*
X121134285Y-75842761D01*
X121039047Y-75890380D01*
X120896190Y-75890380D01*
X121515238Y-75223714D02*
X121896190Y-75223714D01*
X121658095Y-74890380D02*
X121658095Y-75747523D01*
X121705714Y-75842761D01*
X121800952Y-75890380D01*
X121896190Y-75890380D01*
X122372380Y-75890380D02*
X122277142Y-75842761D01*
X122229523Y-75795142D01*
X122181904Y-75699904D01*
X122181904Y-75414190D01*
X122229523Y-75318952D01*
X122277142Y-75271333D01*
X122372380Y-75223714D01*
X122515238Y-75223714D01*
X122610476Y-75271333D01*
X122658095Y-75318952D01*
X122705714Y-75414190D01*
X122705714Y-75699904D01*
X122658095Y-75795142D01*
X122610476Y-75842761D01*
X122515238Y-75890380D01*
X122372380Y-75890380D01*
X123134285Y-75890380D02*
X123134285Y-75223714D01*
X123134285Y-75414190D02*
X123181904Y-75318952D01*
X123229523Y-75271333D01*
X123324761Y-75223714D01*
X123420000Y-75223714D01*
X123705714Y-74985619D02*
X123753333Y-74938000D01*
X123848571Y-74890380D01*
X124086666Y-74890380D01*
X124181904Y-74938000D01*
X124229523Y-74985619D01*
X124277142Y-75080857D01*
X124277142Y-75176095D01*
X124229523Y-75318952D01*
X123658095Y-75890380D01*
X124277142Y-75890380D01*
X116102190Y-90368380D02*
X116102190Y-89368380D01*
X116102190Y-89844571D02*
X116673619Y-89844571D01*
X116673619Y-90368380D02*
X116673619Y-89368380D01*
X117578380Y-90368380D02*
X117578380Y-89844571D01*
X117530761Y-89749333D01*
X117435523Y-89701714D01*
X117245047Y-89701714D01*
X117149809Y-89749333D01*
X117578380Y-90320761D02*
X117483142Y-90368380D01*
X117245047Y-90368380D01*
X117149809Y-90320761D01*
X117102190Y-90225523D01*
X117102190Y-90130285D01*
X117149809Y-90035047D01*
X117245047Y-89987428D01*
X117483142Y-89987428D01*
X117578380Y-89939809D01*
X118197428Y-90368380D02*
X118102190Y-90320761D01*
X118054571Y-90225523D01*
X118054571Y-89368380D01*
X118721238Y-90368380D02*
X118626000Y-90320761D01*
X118578380Y-90225523D01*
X118578380Y-89368380D01*
X119054571Y-90320761D02*
X119197428Y-90368380D01*
X119435523Y-90368380D01*
X119530761Y-90320761D01*
X119578380Y-90273142D01*
X119626000Y-90177904D01*
X119626000Y-90082666D01*
X119578380Y-89987428D01*
X119530761Y-89939809D01*
X119435523Y-89892190D01*
X119245047Y-89844571D01*
X119149809Y-89796952D01*
X119102190Y-89749333D01*
X119054571Y-89654095D01*
X119054571Y-89558857D01*
X119102190Y-89463619D01*
X119149809Y-89416000D01*
X119245047Y-89368380D01*
X119483142Y-89368380D01*
X119626000Y-89416000D01*
X120435523Y-90320761D02*
X120340285Y-90368380D01*
X120149809Y-90368380D01*
X120054571Y-90320761D01*
X120006952Y-90225523D01*
X120006952Y-89844571D01*
X120054571Y-89749333D01*
X120149809Y-89701714D01*
X120340285Y-89701714D01*
X120435523Y-89749333D01*
X120483142Y-89844571D01*
X120483142Y-89939809D01*
X120006952Y-90035047D01*
X120911714Y-89701714D02*
X120911714Y-90368380D01*
X120911714Y-89796952D02*
X120959333Y-89749333D01*
X121054571Y-89701714D01*
X121197428Y-89701714D01*
X121292666Y-89749333D01*
X121340285Y-89844571D01*
X121340285Y-90368380D01*
X121768857Y-90320761D02*
X121864095Y-90368380D01*
X122054571Y-90368380D01*
X122149809Y-90320761D01*
X122197428Y-90225523D01*
X122197428Y-90177904D01*
X122149809Y-90082666D01*
X122054571Y-90035047D01*
X121911714Y-90035047D01*
X121816476Y-89987428D01*
X121768857Y-89892190D01*
X121768857Y-89844571D01*
X121816476Y-89749333D01*
X121911714Y-89701714D01*
X122054571Y-89701714D01*
X122149809Y-89749333D01*
X110617238Y-104211380D02*
X110617238Y-103211380D01*
X110998190Y-103211380D01*
X111093428Y-103259000D01*
X111141047Y-103306619D01*
X111188666Y-103401857D01*
X111188666Y-103544714D01*
X111141047Y-103639952D01*
X111093428Y-103687571D01*
X110998190Y-103735190D01*
X110617238Y-103735190D01*
X111617238Y-104211380D02*
X111617238Y-103211380D01*
X112045809Y-104211380D02*
X112045809Y-103687571D01*
X111998190Y-103592333D01*
X111902952Y-103544714D01*
X111760095Y-103544714D01*
X111664857Y-103592333D01*
X111617238Y-103639952D01*
X112664857Y-104211380D02*
X112569619Y-104163761D01*
X112522000Y-104116142D01*
X112474380Y-104020904D01*
X112474380Y-103735190D01*
X112522000Y-103639952D01*
X112569619Y-103592333D01*
X112664857Y-103544714D01*
X112807714Y-103544714D01*
X112902952Y-103592333D01*
X112950571Y-103639952D01*
X112998190Y-103735190D01*
X112998190Y-104020904D01*
X112950571Y-104116142D01*
X112902952Y-104163761D01*
X112807714Y-104211380D01*
X112664857Y-104211380D01*
X113283904Y-103544714D02*
X113664857Y-103544714D01*
X113426761Y-103211380D02*
X113426761Y-104068523D01*
X113474380Y-104163761D01*
X113569619Y-104211380D01*
X113664857Y-104211380D01*
X114141047Y-104211380D02*
X114045809Y-104163761D01*
X113998190Y-104116142D01*
X113950571Y-104020904D01*
X113950571Y-103735190D01*
X113998190Y-103639952D01*
X114045809Y-103592333D01*
X114141047Y-103544714D01*
X114283904Y-103544714D01*
X114379142Y-103592333D01*
X114426761Y-103639952D01*
X114474380Y-103735190D01*
X114474380Y-104020904D01*
X114426761Y-104116142D01*
X114379142Y-104163761D01*
X114283904Y-104211380D01*
X114141047Y-104211380D01*
X167338523Y-106132380D02*
X167671857Y-107132380D01*
X168005190Y-106132380D01*
X168767095Y-107084761D02*
X168671857Y-107132380D01*
X168481380Y-107132380D01*
X168386142Y-107084761D01*
X168338523Y-107037142D01*
X168290904Y-106941904D01*
X168290904Y-106656190D01*
X168338523Y-106560952D01*
X168386142Y-106513333D01*
X168481380Y-106465714D01*
X168671857Y-106465714D01*
X168767095Y-106513333D01*
X169624238Y-107084761D02*
X169529000Y-107132380D01*
X169338523Y-107132380D01*
X169243285Y-107084761D01*
X169195666Y-107037142D01*
X169148047Y-106941904D01*
X169148047Y-106656190D01*
X169195666Y-106560952D01*
X169243285Y-106513333D01*
X169338523Y-106465714D01*
X169529000Y-106465714D01*
X169624238Y-106513333D01*
X121951904Y-113482380D02*
X121618571Y-113006190D01*
X121380476Y-113482380D02*
X121380476Y-112482380D01*
X121761428Y-112482380D01*
X121856666Y-112530000D01*
X121904285Y-112577619D01*
X121951904Y-112672857D01*
X121951904Y-112815714D01*
X121904285Y-112910952D01*
X121856666Y-112958571D01*
X121761428Y-113006190D01*
X121380476Y-113006190D01*
X122761428Y-113434761D02*
X122666190Y-113482380D01*
X122475714Y-113482380D01*
X122380476Y-113434761D01*
X122332857Y-113339523D01*
X122332857Y-112958571D01*
X122380476Y-112863333D01*
X122475714Y-112815714D01*
X122666190Y-112815714D01*
X122761428Y-112863333D01*
X122809047Y-112958571D01*
X122809047Y-113053809D01*
X122332857Y-113149047D01*
X123190000Y-113434761D02*
X123285238Y-113482380D01*
X123475714Y-113482380D01*
X123570952Y-113434761D01*
X123618571Y-113339523D01*
X123618571Y-113291904D01*
X123570952Y-113196666D01*
X123475714Y-113149047D01*
X123332857Y-113149047D01*
X123237619Y-113101428D01*
X123190000Y-113006190D01*
X123190000Y-112958571D01*
X123237619Y-112863333D01*
X123332857Y-112815714D01*
X123475714Y-112815714D01*
X123570952Y-112863333D01*
X124428095Y-113434761D02*
X124332857Y-113482380D01*
X124142380Y-113482380D01*
X124047142Y-113434761D01*
X123999523Y-113339523D01*
X123999523Y-112958571D01*
X124047142Y-112863333D01*
X124142380Y-112815714D01*
X124332857Y-112815714D01*
X124428095Y-112863333D01*
X124475714Y-112958571D01*
X124475714Y-113053809D01*
X123999523Y-113149047D01*
X124761428Y-112815714D02*
X125142380Y-112815714D01*
X124904285Y-112482380D02*
X124904285Y-113339523D01*
X124951904Y-113434761D01*
X125047142Y-113482380D01*
X125142380Y-113482380D01*
X135675952Y-105814761D02*
X135818809Y-105862380D01*
X136056904Y-105862380D01*
X136152142Y-105814761D01*
X136199761Y-105767142D01*
X136247380Y-105671904D01*
X136247380Y-105576666D01*
X136199761Y-105481428D01*
X136152142Y-105433809D01*
X136056904Y-105386190D01*
X135866428Y-105338571D01*
X135771190Y-105290952D01*
X135723571Y-105243333D01*
X135675952Y-105148095D01*
X135675952Y-105052857D01*
X135723571Y-104957619D01*
X135771190Y-104910000D01*
X135866428Y-104862380D01*
X136104523Y-104862380D01*
X136247380Y-104910000D01*
X136675952Y-105862380D02*
X136675952Y-105195714D01*
X136675952Y-104862380D02*
X136628333Y-104910000D01*
X136675952Y-104957619D01*
X136723571Y-104910000D01*
X136675952Y-104862380D01*
X136675952Y-104957619D01*
X137152142Y-105195714D02*
X137152142Y-105862380D01*
X137152142Y-105290952D02*
X137199761Y-105243333D01*
X137295000Y-105195714D01*
X137437857Y-105195714D01*
X137533095Y-105243333D01*
X137580714Y-105338571D01*
X137580714Y-105862380D01*
X138485476Y-105195714D02*
X138485476Y-106005238D01*
X138437857Y-106100476D01*
X138390238Y-106148095D01*
X138295000Y-106195714D01*
X138152142Y-106195714D01*
X138056904Y-106148095D01*
X138485476Y-105814761D02*
X138390238Y-105862380D01*
X138199761Y-105862380D01*
X138104523Y-105814761D01*
X138056904Y-105767142D01*
X138009285Y-105671904D01*
X138009285Y-105386190D01*
X138056904Y-105290952D01*
X138104523Y-105243333D01*
X138199761Y-105195714D01*
X138390238Y-105195714D01*
X138485476Y-105243333D01*
X139104523Y-105862380D02*
X139009285Y-105814761D01*
X138961666Y-105719523D01*
X138961666Y-104862380D01*
X139866428Y-105814761D02*
X139771190Y-105862380D01*
X139580714Y-105862380D01*
X139485476Y-105814761D01*
X139437857Y-105719523D01*
X139437857Y-105338571D01*
X139485476Y-105243333D01*
X139580714Y-105195714D01*
X139771190Y-105195714D01*
X139866428Y-105243333D01*
X139914047Y-105338571D01*
X139914047Y-105433809D01*
X139437857Y-105529047D01*
X136040952Y-110418571D02*
X136183809Y-110466190D01*
X136231428Y-110513809D01*
X136279047Y-110609047D01*
X136279047Y-110751904D01*
X136231428Y-110847142D01*
X136183809Y-110894761D01*
X136088571Y-110942380D01*
X135707619Y-110942380D01*
X135707619Y-109942380D01*
X136040952Y-109942380D01*
X136136190Y-109990000D01*
X136183809Y-110037619D01*
X136231428Y-110132857D01*
X136231428Y-110228095D01*
X136183809Y-110323333D01*
X136136190Y-110370952D01*
X136040952Y-110418571D01*
X135707619Y-110418571D01*
X136850476Y-110942380D02*
X136755238Y-110894761D01*
X136707619Y-110847142D01*
X136660000Y-110751904D01*
X136660000Y-110466190D01*
X136707619Y-110370952D01*
X136755238Y-110323333D01*
X136850476Y-110275714D01*
X136993333Y-110275714D01*
X137088571Y-110323333D01*
X137136190Y-110370952D01*
X137183809Y-110466190D01*
X137183809Y-110751904D01*
X137136190Y-110847142D01*
X137088571Y-110894761D01*
X136993333Y-110942380D01*
X136850476Y-110942380D01*
X137755238Y-110942380D02*
X137660000Y-110894761D01*
X137612380Y-110847142D01*
X137564761Y-110751904D01*
X137564761Y-110466190D01*
X137612380Y-110370952D01*
X137660000Y-110323333D01*
X137755238Y-110275714D01*
X137898095Y-110275714D01*
X137993333Y-110323333D01*
X138040952Y-110370952D01*
X138088571Y-110466190D01*
X138088571Y-110751904D01*
X138040952Y-110847142D01*
X137993333Y-110894761D01*
X137898095Y-110942380D01*
X137755238Y-110942380D01*
X138374285Y-110275714D02*
X138755238Y-110275714D01*
X138517142Y-109942380D02*
X138517142Y-110799523D01*
X138564761Y-110894761D01*
X138660000Y-110942380D01*
X138755238Y-110942380D01*
D13*
X151039285Y-51008642D02*
X150827619Y-51008642D01*
X150827619Y-51341261D02*
X150827619Y-50706261D01*
X151130000Y-50706261D01*
X151281190Y-50706261D02*
X151644047Y-50706261D01*
X151462619Y-51341261D02*
X151462619Y-50706261D01*
X151825476Y-50766738D02*
X151855714Y-50736500D01*
X151916190Y-50706261D01*
X152067380Y-50706261D01*
X152127857Y-50736500D01*
X152158095Y-50766738D01*
X152188333Y-50827214D01*
X152188333Y-50887690D01*
X152158095Y-50978404D01*
X151795238Y-51341261D01*
X152188333Y-51341261D01*
X152400000Y-50706261D02*
X152793095Y-50706261D01*
X152581428Y-50948166D01*
X152672142Y-50948166D01*
X152732619Y-50978404D01*
X152762857Y-51008642D01*
X152793095Y-51069119D01*
X152793095Y-51220309D01*
X152762857Y-51280785D01*
X152732619Y-51311023D01*
X152672142Y-51341261D01*
X152490714Y-51341261D01*
X152430238Y-51311023D01*
X152400000Y-51280785D01*
X153337380Y-50917928D02*
X153337380Y-51341261D01*
X153186190Y-50676023D02*
X153035000Y-51129595D01*
X153428095Y-51129595D01*
X153609523Y-50706261D02*
X154032857Y-51341261D01*
X154032857Y-50706261D02*
X153609523Y-51341261D01*
D12*
X167790904Y-109148571D02*
X167933761Y-109196190D01*
X167981380Y-109243809D01*
X168029000Y-109339047D01*
X168029000Y-109481904D01*
X167981380Y-109577142D01*
X167933761Y-109624761D01*
X167838523Y-109672380D01*
X167457571Y-109672380D01*
X167457571Y-108672380D01*
X167790904Y-108672380D01*
X167886142Y-108720000D01*
X167933761Y-108767619D01*
X167981380Y-108862857D01*
X167981380Y-108958095D01*
X167933761Y-109053333D01*
X167886142Y-109100952D01*
X167790904Y-109148571D01*
X167457571Y-109148571D01*
X168409952Y-109386666D02*
X168886142Y-109386666D01*
X168314714Y-109672380D02*
X168648047Y-108672380D01*
X168981380Y-109672380D01*
X169171857Y-108672380D02*
X169743285Y-108672380D01*
X169457571Y-109672380D02*
X169457571Y-108672380D01*
X167140095Y-103592380D02*
X167140095Y-104401904D01*
X167187714Y-104497142D01*
X167235333Y-104544761D01*
X167330571Y-104592380D01*
X167521047Y-104592380D01*
X167616285Y-104544761D01*
X167663904Y-104497142D01*
X167711523Y-104401904D01*
X167711523Y-103592380D01*
X168140095Y-104544761D02*
X168282952Y-104592380D01*
X168521047Y-104592380D01*
X168616285Y-104544761D01*
X168663904Y-104497142D01*
X168711523Y-104401904D01*
X168711523Y-104306666D01*
X168663904Y-104211428D01*
X168616285Y-104163809D01*
X168521047Y-104116190D01*
X168330571Y-104068571D01*
X168235333Y-104020952D01*
X168187714Y-103973333D01*
X168140095Y-103878095D01*
X168140095Y-103782857D01*
X168187714Y-103687619D01*
X168235333Y-103640000D01*
X168330571Y-103592380D01*
X168568666Y-103592380D01*
X168711523Y-103640000D01*
X169473428Y-104068571D02*
X169616285Y-104116190D01*
X169663904Y-104163809D01*
X169711523Y-104259047D01*
X169711523Y-104401904D01*
X169663904Y-104497142D01*
X169616285Y-104544761D01*
X169521047Y-104592380D01*
X169140095Y-104592380D01*
X169140095Y-103592380D01*
X169473428Y-103592380D01*
X169568666Y-103640000D01*
X169616285Y-103687619D01*
X169663904Y-103782857D01*
X169663904Y-103878095D01*
X169616285Y-103973333D01*
X169568666Y-104020952D01*
X169473428Y-104068571D01*
X169140095Y-104068571D01*
X181094285Y-113863380D02*
X181094285Y-112863380D01*
X181332380Y-112863380D01*
X181475238Y-112911000D01*
X181570476Y-113006238D01*
X181618095Y-113101476D01*
X181665714Y-113291952D01*
X181665714Y-113434809D01*
X181618095Y-113625285D01*
X181570476Y-113720523D01*
X181475238Y-113815761D01*
X181332380Y-113863380D01*
X181094285Y-113863380D01*
X182618095Y-112911000D02*
X182522857Y-112863380D01*
X182380000Y-112863380D01*
X182237142Y-112911000D01*
X182141904Y-113006238D01*
X182094285Y-113101476D01*
X182046666Y-113291952D01*
X182046666Y-113434809D01*
X182094285Y-113625285D01*
X182141904Y-113720523D01*
X182237142Y-113815761D01*
X182380000Y-113863380D01*
X182475238Y-113863380D01*
X182618095Y-113815761D01*
X182665714Y-113768142D01*
X182665714Y-113434809D01*
X182475238Y-113434809D01*
X183094285Y-113863380D02*
X183094285Y-112863380D01*
X183665714Y-113863380D01*
X183665714Y-112863380D01*
X184141904Y-113863380D02*
X184141904Y-112863380D01*
X184380000Y-112863380D01*
X184522857Y-112911000D01*
X184618095Y-113006238D01*
X184665714Y-113101476D01*
X184713333Y-113291952D01*
X184713333Y-113434809D01*
X184665714Y-113625285D01*
X184618095Y-113720523D01*
X184522857Y-113815761D01*
X184380000Y-113863380D01*
X184141904Y-113863380D01*
X176387285Y-113482428D02*
X177149190Y-113482428D01*
X176768238Y-113863380D02*
X176768238Y-113101476D01*
X178101571Y-112863380D02*
X177625380Y-112863380D01*
X177577761Y-113339571D01*
X177625380Y-113291952D01*
X177720619Y-113244333D01*
X177958714Y-113244333D01*
X178053952Y-113291952D01*
X178101571Y-113339571D01*
X178149190Y-113434809D01*
X178149190Y-113672904D01*
X178101571Y-113768142D01*
X178053952Y-113815761D01*
X177958714Y-113863380D01*
X177720619Y-113863380D01*
X177625380Y-113815761D01*
X177577761Y-113768142D01*
X178434904Y-112863380D02*
X178768238Y-113863380D01*
X179101571Y-112863380D01*
X173355238Y-100782380D02*
X173355238Y-99782380D01*
X173736190Y-99782380D01*
X173831428Y-99830000D01*
X173879047Y-99877619D01*
X173926666Y-99972857D01*
X173926666Y-100115714D01*
X173879047Y-100210952D01*
X173831428Y-100258571D01*
X173736190Y-100306190D01*
X173355238Y-100306190D01*
X174355238Y-100782380D02*
X174355238Y-99782380D01*
X174783809Y-100782380D02*
X174783809Y-100258571D01*
X174736190Y-100163333D01*
X174640952Y-100115714D01*
X174498095Y-100115714D01*
X174402857Y-100163333D01*
X174355238Y-100210952D01*
X175402857Y-100782380D02*
X175307619Y-100734761D01*
X175260000Y-100687142D01*
X175212380Y-100591904D01*
X175212380Y-100306190D01*
X175260000Y-100210952D01*
X175307619Y-100163333D01*
X175402857Y-100115714D01*
X175545714Y-100115714D01*
X175640952Y-100163333D01*
X175688571Y-100210952D01*
X175736190Y-100306190D01*
X175736190Y-100591904D01*
X175688571Y-100687142D01*
X175640952Y-100734761D01*
X175545714Y-100782380D01*
X175402857Y-100782380D01*
X176021904Y-100115714D02*
X176402857Y-100115714D01*
X176164761Y-99782380D02*
X176164761Y-100639523D01*
X176212380Y-100734761D01*
X176307619Y-100782380D01*
X176402857Y-100782380D01*
X176879047Y-100782380D02*
X176783809Y-100734761D01*
X176736190Y-100687142D01*
X176688571Y-100591904D01*
X176688571Y-100306190D01*
X176736190Y-100210952D01*
X176783809Y-100163333D01*
X176879047Y-100115714D01*
X177021904Y-100115714D01*
X177117142Y-100163333D01*
X177164761Y-100210952D01*
X177212380Y-100306190D01*
X177212380Y-100591904D01*
X177164761Y-100687142D01*
X177117142Y-100734761D01*
X177021904Y-100782380D01*
X176879047Y-100782380D01*
X173363095Y-95702380D02*
X173363095Y-94702380D01*
X173363095Y-95178571D02*
X173934523Y-95178571D01*
X173934523Y-95702380D02*
X173934523Y-94702380D01*
X174839285Y-95702380D02*
X174839285Y-95178571D01*
X174791666Y-95083333D01*
X174696428Y-95035714D01*
X174505952Y-95035714D01*
X174410714Y-95083333D01*
X174839285Y-95654761D02*
X174744047Y-95702380D01*
X174505952Y-95702380D01*
X174410714Y-95654761D01*
X174363095Y-95559523D01*
X174363095Y-95464285D01*
X174410714Y-95369047D01*
X174505952Y-95321428D01*
X174744047Y-95321428D01*
X174839285Y-95273809D01*
X175458333Y-95702380D02*
X175363095Y-95654761D01*
X175315476Y-95559523D01*
X175315476Y-94702380D01*
X175982142Y-95702380D02*
X175886904Y-95654761D01*
X175839285Y-95559523D01*
X175839285Y-94702380D01*
X127635238Y-100782380D02*
X127635238Y-99782380D01*
X128016190Y-99782380D01*
X128111428Y-99830000D01*
X128159047Y-99877619D01*
X128206666Y-99972857D01*
X128206666Y-100115714D01*
X128159047Y-100210952D01*
X128111428Y-100258571D01*
X128016190Y-100306190D01*
X127635238Y-100306190D01*
X128635238Y-100782380D02*
X128635238Y-99782380D01*
X129063809Y-100782380D02*
X129063809Y-100258571D01*
X129016190Y-100163333D01*
X128920952Y-100115714D01*
X128778095Y-100115714D01*
X128682857Y-100163333D01*
X128635238Y-100210952D01*
X129682857Y-100782380D02*
X129587619Y-100734761D01*
X129540000Y-100687142D01*
X129492380Y-100591904D01*
X129492380Y-100306190D01*
X129540000Y-100210952D01*
X129587619Y-100163333D01*
X129682857Y-100115714D01*
X129825714Y-100115714D01*
X129920952Y-100163333D01*
X129968571Y-100210952D01*
X130016190Y-100306190D01*
X130016190Y-100591904D01*
X129968571Y-100687142D01*
X129920952Y-100734761D01*
X129825714Y-100782380D01*
X129682857Y-100782380D01*
X130301904Y-100115714D02*
X130682857Y-100115714D01*
X130444761Y-99782380D02*
X130444761Y-100639523D01*
X130492380Y-100734761D01*
X130587619Y-100782380D01*
X130682857Y-100782380D01*
X131159047Y-100782380D02*
X131063809Y-100734761D01*
X131016190Y-100687142D01*
X130968571Y-100591904D01*
X130968571Y-100306190D01*
X131016190Y-100210952D01*
X131063809Y-100163333D01*
X131159047Y-100115714D01*
X131301904Y-100115714D01*
X131397142Y-100163333D01*
X131444761Y-100210952D01*
X131492380Y-100306190D01*
X131492380Y-100591904D01*
X131444761Y-100687142D01*
X131397142Y-100734761D01*
X131301904Y-100782380D01*
X131159047Y-100782380D01*
X128913095Y-95702380D02*
X128913095Y-94702380D01*
X128913095Y-95178571D02*
X129484523Y-95178571D01*
X129484523Y-95702380D02*
X129484523Y-94702380D01*
X130389285Y-95702380D02*
X130389285Y-95178571D01*
X130341666Y-95083333D01*
X130246428Y-95035714D01*
X130055952Y-95035714D01*
X129960714Y-95083333D01*
X130389285Y-95654761D02*
X130294047Y-95702380D01*
X130055952Y-95702380D01*
X129960714Y-95654761D01*
X129913095Y-95559523D01*
X129913095Y-95464285D01*
X129960714Y-95369047D01*
X130055952Y-95321428D01*
X130294047Y-95321428D01*
X130389285Y-95273809D01*
X131008333Y-95702380D02*
X130913095Y-95654761D01*
X130865476Y-95559523D01*
X130865476Y-94702380D01*
X131532142Y-95702380D02*
X131436904Y-95654761D01*
X131389285Y-95559523D01*
X131389285Y-94702380D01*
X152773333Y-110942380D02*
X152297142Y-110942380D01*
X152297142Y-109942380D01*
X153106666Y-110942380D02*
X153106666Y-109942380D01*
X153440000Y-110656666D01*
X153773333Y-109942380D01*
X153773333Y-110942380D01*
X154201904Y-110037619D02*
X154249523Y-109990000D01*
X154344761Y-109942380D01*
X154582857Y-109942380D01*
X154678095Y-109990000D01*
X154725714Y-110037619D01*
X154773333Y-110132857D01*
X154773333Y-110228095D01*
X154725714Y-110370952D01*
X154154285Y-110942380D01*
X154773333Y-110942380D01*
X155630476Y-110275714D02*
X155630476Y-110942380D01*
X155392380Y-109894761D02*
X155154285Y-110609047D01*
X155773333Y-110609047D01*
X156344761Y-109942380D02*
X156440000Y-109942380D01*
X156535238Y-109990000D01*
X156582857Y-110037619D01*
X156630476Y-110132857D01*
X156678095Y-110323333D01*
X156678095Y-110561428D01*
X156630476Y-110751904D01*
X156582857Y-110847142D01*
X156535238Y-110894761D01*
X156440000Y-110942380D01*
X156344761Y-110942380D01*
X156249523Y-110894761D01*
X156201904Y-110847142D01*
X156154285Y-110751904D01*
X156106666Y-110561428D01*
X156106666Y-110323333D01*
X156154285Y-110132857D01*
X156201904Y-110037619D01*
X156249523Y-109990000D01*
X156344761Y-109942380D01*
X157011428Y-109942380D02*
X157630476Y-109942380D01*
X157297142Y-110323333D01*
X157440000Y-110323333D01*
X157535238Y-110370952D01*
X157582857Y-110418571D01*
X157630476Y-110513809D01*
X157630476Y-110751904D01*
X157582857Y-110847142D01*
X157535238Y-110894761D01*
X157440000Y-110942380D01*
X157154285Y-110942380D01*
X157059047Y-110894761D01*
X157011428Y-110847142D01*
X148685714Y-59856666D02*
X149161904Y-59856666D01*
X148590476Y-60142380D02*
X148923809Y-59142380D01*
X149257142Y-60142380D01*
X149590476Y-59618571D02*
X149923809Y-59618571D01*
X150066666Y-60142380D02*
X149590476Y-60142380D01*
X149590476Y-59142380D01*
X150066666Y-59142380D01*
X150495238Y-59761428D02*
X151257142Y-59761428D01*
X152304761Y-60142380D02*
X151971428Y-59666190D01*
X151733333Y-60142380D02*
X151733333Y-59142380D01*
X152114285Y-59142380D01*
X152209523Y-59190000D01*
X152257142Y-59237619D01*
X152304761Y-59332857D01*
X152304761Y-59475714D01*
X152257142Y-59570952D01*
X152209523Y-59618571D01*
X152114285Y-59666190D01*
X151733333Y-59666190D01*
X152638095Y-59142380D02*
X153304761Y-60142380D01*
X153304761Y-59142380D02*
X152638095Y-60142380D01*
X153638095Y-59237619D02*
X153685714Y-59190000D01*
X153780952Y-59142380D01*
X154019047Y-59142380D01*
X154114285Y-59190000D01*
X154161904Y-59237619D01*
X154209523Y-59332857D01*
X154209523Y-59428095D01*
X154161904Y-59570952D01*
X153590476Y-60142380D01*
X154209523Y-60142380D01*
X154590476Y-59237619D02*
X154638095Y-59190000D01*
X154733333Y-59142380D01*
X154971428Y-59142380D01*
X155066666Y-59190000D01*
X155114285Y-59237619D01*
X155161904Y-59332857D01*
X155161904Y-59428095D01*
X155114285Y-59570952D01*
X154542857Y-60142380D01*
X155161904Y-60142380D01*
X155780952Y-59142380D02*
X155876190Y-59142380D01*
X155971428Y-59190000D01*
X156019047Y-59237619D01*
X156066666Y-59332857D01*
X156114285Y-59523333D01*
X156114285Y-59761428D01*
X156066666Y-59951904D01*
X156019047Y-60047142D01*
X155971428Y-60094761D01*
X155876190Y-60142380D01*
X155780952Y-60142380D01*
X155685714Y-60094761D01*
X155638095Y-60047142D01*
X155590476Y-59951904D01*
X155542857Y-59761428D01*
X155542857Y-59523333D01*
X155590476Y-59332857D01*
X155638095Y-59237619D01*
X155685714Y-59190000D01*
X155780952Y-59142380D01*
X168632142Y-94670476D02*
X168679761Y-94718095D01*
X168727380Y-94860952D01*
X168727380Y-94956190D01*
X168679761Y-95099047D01*
X168584523Y-95194285D01*
X168489285Y-95241904D01*
X168298809Y-95289523D01*
X168155952Y-95289523D01*
X167965476Y-95241904D01*
X167870238Y-95194285D01*
X167775000Y-95099047D01*
X167727380Y-94956190D01*
X167727380Y-94860952D01*
X167775000Y-94718095D01*
X167822619Y-94670476D01*
X168727380Y-94241904D02*
X167727380Y-94241904D01*
X168727380Y-93670476D01*
X167727380Y-93670476D01*
X167822619Y-93241904D02*
X167775000Y-93194285D01*
X167727380Y-93099047D01*
X167727380Y-92860952D01*
X167775000Y-92765714D01*
X167822619Y-92718095D01*
X167917857Y-92670476D01*
X168013095Y-92670476D01*
X168155952Y-92718095D01*
X168727380Y-93289523D01*
X168727380Y-92670476D01*
X136167857Y-93289523D02*
X136120238Y-93241904D01*
X136072619Y-93099047D01*
X136072619Y-93003809D01*
X136120238Y-92860952D01*
X136215476Y-92765714D01*
X136310714Y-92718095D01*
X136501190Y-92670476D01*
X136644047Y-92670476D01*
X136834523Y-92718095D01*
X136929761Y-92765714D01*
X137025000Y-92860952D01*
X137072619Y-93003809D01*
X137072619Y-93099047D01*
X137025000Y-93241904D01*
X136977380Y-93289523D01*
X136072619Y-93718095D02*
X137072619Y-93718095D01*
X136072619Y-94289523D01*
X137072619Y-94289523D01*
X136072619Y-95289523D02*
X136072619Y-94718095D01*
X136072619Y-95003809D02*
X137072619Y-95003809D01*
X136929761Y-94908571D01*
X136834523Y-94813333D01*
X136786904Y-94718095D01*
D14*
X134935000Y-52070000D02*
G75*
G03*
X134935000Y-52070000I-950000J0D01*
G01*
X122235000Y-57150000D02*
G75*
G03*
X122235000Y-57150000I-950000J0D01*
G01*
X185520000Y-87630000D02*
X185590000Y-87630000D01*
X185520000Y-87630000D02*
G75*
G03*
X185520000Y-87630000I-1370000J0D01*
G01*
X190070000Y-90180000D02*
X190070000Y-88380000D01*
X191570000Y-75080000D02*
X191570000Y-75830000D01*
X189020000Y-90480000D02*
X190270000Y-90480000D01*
X189020000Y-89230000D02*
X189020000Y-90480000D01*
X190070000Y-88380000D02*
X189320000Y-88380000D01*
X189320000Y-88380000D02*
X189320000Y-90180000D01*
X191570000Y-89430000D02*
X194520000Y-89430000D01*
X189320000Y-75080000D02*
X189320000Y-76880000D01*
X191570000Y-75830000D02*
X194520000Y-75830000D01*
X189310000Y-90190000D02*
X195280000Y-90190000D01*
X194520000Y-89430000D02*
X194520000Y-82630000D01*
X190070000Y-78380000D02*
X189320000Y-78380000D01*
X189320000Y-86880000D02*
X190070000Y-86880000D01*
X189320000Y-78380000D02*
X189320000Y-86880000D01*
X190070000Y-86880000D02*
X190070000Y-78380000D01*
X194520000Y-75830000D02*
X194520000Y-82630000D01*
X190070000Y-76880000D02*
X190070000Y-75080000D01*
X190070000Y-75080000D02*
X189320000Y-75080000D01*
X189310000Y-75070000D02*
X189310000Y-90190000D01*
X195280000Y-75070000D02*
X189310000Y-75070000D01*
X191570000Y-90180000D02*
X191570000Y-89430000D01*
X189320000Y-76880000D02*
X190070000Y-76880000D01*
X195280000Y-90190000D02*
X195280000Y-75070000D01*
X189320000Y-90180000D02*
X190070000Y-90180000D01*
X163730000Y-110490000D02*
X163660000Y-110490000D01*
X166470000Y-110490000D02*
G75*
G03*
X166470000Y-110490000I-1370000J0D01*
G01*
X137475000Y-52070000D02*
G75*
G03*
X137475000Y-52070000I-950000J0D01*
G01*
X132395000Y-54610000D02*
G75*
G03*
X132395000Y-54610000I-950000J0D01*
G01*
X124775000Y-54610000D02*
G75*
G03*
X124775000Y-54610000I-950000J0D01*
G01*
X127000000Y-111460000D02*
X127000000Y-111760000D01*
X119380000Y-104140000D02*
X127000000Y-104140000D01*
X127000000Y-104140000D02*
X127000000Y-104440000D01*
X119380000Y-111460000D02*
X119380000Y-111760000D01*
X119380000Y-104140000D02*
X119380000Y-104440000D01*
X127000000Y-106380000D02*
X127000000Y-109520000D01*
X127000000Y-111760000D02*
X119380000Y-111760000D01*
X119380000Y-106380000D02*
X119380000Y-109520000D01*
X125730000Y-107950000D02*
G75*
G03*
X125730000Y-107950000I-2540000J0D01*
G01*
X114730000Y-61480000D02*
X115480000Y-61480000D01*
X113230000Y-72280000D02*
X113230000Y-71530000D01*
X110280000Y-71530000D02*
X110280000Y-65980000D01*
X115490000Y-72290000D02*
X115490000Y-59670000D01*
X110280000Y-60430000D02*
X110280000Y-65980000D01*
X109520000Y-59670000D02*
X109520000Y-72290000D01*
X114730000Y-70480000D02*
X114730000Y-72280000D01*
X114730000Y-68980000D02*
X115480000Y-68980000D01*
X114730000Y-72280000D02*
X115480000Y-72280000D01*
X115480000Y-61480000D02*
X115480000Y-59680000D01*
X115480000Y-62980000D02*
X114730000Y-62980000D01*
X115490000Y-59670000D02*
X109520000Y-59670000D01*
X115480000Y-59680000D02*
X114730000Y-59680000D01*
X115780000Y-59380000D02*
X114530000Y-59380000D01*
X113230000Y-59680000D02*
X113230000Y-60430000D01*
X114730000Y-62980000D02*
X114730000Y-68980000D01*
X115480000Y-68980000D02*
X115480000Y-62980000D01*
X114730000Y-59680000D02*
X114730000Y-61480000D01*
X115480000Y-70480000D02*
X114730000Y-70480000D01*
X115780000Y-60630000D02*
X115780000Y-59380000D01*
X109520000Y-72290000D02*
X115490000Y-72290000D01*
X113230000Y-60430000D02*
X110280000Y-60430000D01*
X115480000Y-72280000D02*
X115480000Y-70480000D01*
X113230000Y-71530000D02*
X110280000Y-71530000D01*
X161060000Y-109950000D02*
X161390000Y-109950000D01*
X158650000Y-103410000D02*
X158980000Y-103410000D01*
X161390000Y-103410000D02*
X161060000Y-103410000D01*
X161390000Y-109950000D02*
X161390000Y-103410000D01*
X158650000Y-109950000D02*
X158650000Y-103410000D01*
X158980000Y-109950000D02*
X158650000Y-109950000D01*
X119480000Y-95250000D02*
X119550000Y-95250000D01*
X119480000Y-95250000D02*
G75*
G03*
X119480000Y-95250000I-1370000J0D01*
G01*
X140015000Y-52070000D02*
G75*
G03*
X140015000Y-52070000I-950000J0D01*
G01*
X142555000Y-54610000D02*
G75*
G03*
X142555000Y-54610000I-950000J0D01*
G01*
X142555000Y-52070000D02*
G75*
G03*
X142555000Y-52070000I-950000J0D01*
G01*
X124775000Y-52070000D02*
G75*
G03*
X124775000Y-52070000I-950000J0D01*
G01*
X145095000Y-57150000D02*
G75*
G03*
X145095000Y-57150000I-950000J0D01*
G01*
X174760000Y-105020000D02*
X185920000Y-105020000D01*
X185920000Y-105020000D02*
X185920000Y-112620000D01*
X185920000Y-112620000D02*
X174760000Y-112620000D01*
X174760000Y-112620000D02*
X174760000Y-105020000D01*
X119280000Y-85090000D02*
X119210000Y-85090000D01*
X122020000Y-85090000D02*
G75*
G03*
X122020000Y-85090000I-1370000J0D01*
G01*
X155050000Y-109280000D02*
X155050000Y-99000000D01*
X149750000Y-109280000D02*
X151400000Y-109280000D01*
X153400000Y-109280000D02*
X155050000Y-109280000D01*
X155050000Y-99000000D02*
X149750000Y-99000000D01*
X149750000Y-99000000D02*
X149750000Y-109280000D01*
X153400000Y-109280000D02*
G75*
G03*
X151400000Y-109280000I-1000000J0D01*
G01*
X170080000Y-80010000D02*
X170010000Y-80010000D01*
X172820000Y-80010000D02*
G75*
G03*
X172820000Y-80010000I-1370000J0D01*
G01*
X134720000Y-67310000D02*
X134790000Y-67310000D01*
X134720000Y-67310000D02*
G75*
G03*
X134720000Y-67310000I-1370000J0D01*
G01*
X185520000Y-82550000D02*
X185590000Y-82550000D01*
X185520000Y-82550000D02*
G75*
G03*
X185520000Y-82550000I-1370000J0D01*
G01*
X134520000Y-80010000D02*
X134450000Y-80010000D01*
X137260000Y-80010000D02*
G75*
G03*
X137260000Y-80010000I-1370000J0D01*
G01*
X115480000Y-78220000D02*
X114730000Y-78220000D01*
X114730000Y-90020000D02*
X115480000Y-90020000D01*
X114730000Y-86720000D02*
X115480000Y-86720000D01*
X110280000Y-75670000D02*
X110280000Y-82470000D01*
X114730000Y-78220000D02*
X114730000Y-86720000D01*
X115780000Y-75870000D02*
X115780000Y-74620000D01*
X115480000Y-88220000D02*
X114730000Y-88220000D01*
X115780000Y-74620000D02*
X114530000Y-74620000D01*
X115480000Y-90020000D02*
X115480000Y-88220000D01*
X115490000Y-74910000D02*
X109520000Y-74910000D01*
X115480000Y-76720000D02*
X115480000Y-74920000D01*
X109520000Y-74910000D02*
X109520000Y-90030000D01*
X113230000Y-90020000D02*
X113230000Y-89270000D01*
X110280000Y-89270000D02*
X110280000Y-82470000D01*
X114730000Y-74920000D02*
X114730000Y-76720000D01*
X114730000Y-88220000D02*
X114730000Y-90020000D01*
X115480000Y-74920000D02*
X114730000Y-74920000D01*
X115490000Y-90030000D02*
X115490000Y-74910000D01*
X113230000Y-75670000D02*
X110280000Y-75670000D01*
X114730000Y-76720000D02*
X115480000Y-76720000D01*
X113230000Y-89270000D02*
X110280000Y-89270000D01*
X109520000Y-90030000D02*
X115490000Y-90030000D01*
X113230000Y-74920000D02*
X113230000Y-75670000D01*
X115480000Y-86720000D02*
X115480000Y-78220000D01*
X119480000Y-82550000D02*
X119550000Y-82550000D01*
X119480000Y-82550000D02*
G75*
G03*
X119480000Y-82550000I-1370000J0D01*
G01*
X119480000Y-87630000D02*
X119550000Y-87630000D01*
X119480000Y-87630000D02*
G75*
G03*
X119480000Y-87630000I-1370000J0D01*
G01*
X142555000Y-57150000D02*
G75*
G03*
X142555000Y-57150000I-950000J0D01*
G01*
X185320000Y-85090000D02*
X185250000Y-85090000D01*
X188060000Y-85090000D02*
G75*
G03*
X188060000Y-85090000I-1370000J0D01*
G01*
X134520000Y-74930000D02*
X134450000Y-74930000D01*
X137260000Y-74930000D02*
G75*
G03*
X137260000Y-74930000I-1370000J0D01*
G01*
X145095000Y-54610000D02*
G75*
G03*
X145095000Y-54610000I-950000J0D01*
G01*
X170080000Y-74930000D02*
X170010000Y-74930000D01*
X172820000Y-74930000D02*
G75*
G03*
X172820000Y-74930000I-1370000J0D01*
G01*
X132395000Y-52070000D02*
G75*
G03*
X132395000Y-52070000I-950000J0D01*
G01*
X129855000Y-54610000D02*
G75*
G03*
X129855000Y-54610000I-950000J0D01*
G01*
X114730000Y-94500000D02*
X115480000Y-94500000D01*
X113230000Y-102800000D02*
X113230000Y-102050000D01*
X115490000Y-102810000D02*
X115490000Y-92690000D01*
X115480000Y-94500000D02*
X115480000Y-92700000D01*
X114730000Y-102800000D02*
X115480000Y-102800000D01*
X114730000Y-101000000D02*
X114730000Y-102800000D01*
X115480000Y-102800000D02*
X115480000Y-101000000D01*
X109520000Y-92690000D02*
X109520000Y-102810000D01*
X109520000Y-102810000D02*
X115490000Y-102810000D01*
X113230000Y-102050000D02*
X110280000Y-102050000D01*
X114730000Y-92700000D02*
X114730000Y-94500000D01*
X114730000Y-99500000D02*
X115480000Y-99500000D01*
X110280000Y-93450000D02*
X110280000Y-97750000D01*
X115480000Y-99500000D02*
X115480000Y-96000000D01*
X114730000Y-96000000D02*
X114730000Y-99500000D01*
X115780000Y-93650000D02*
X115780000Y-92400000D01*
X110280000Y-102050000D02*
X110280000Y-97750000D01*
X115490000Y-92690000D02*
X109520000Y-92690000D01*
X115480000Y-101000000D02*
X114730000Y-101000000D01*
X115480000Y-92700000D02*
X114730000Y-92700000D01*
X115780000Y-92400000D02*
X114530000Y-92400000D01*
X115480000Y-96000000D02*
X114730000Y-96000000D01*
X113230000Y-93450000D02*
X110280000Y-93450000D01*
X113230000Y-92700000D02*
X113230000Y-93450000D01*
X189320000Y-96000000D02*
X189320000Y-99500000D01*
X189320000Y-92700000D02*
X189320000Y-94500000D01*
X190070000Y-102800000D02*
X190070000Y-101000000D01*
X189320000Y-99500000D02*
X190070000Y-99500000D01*
X189310000Y-92690000D02*
X189310000Y-102810000D01*
X190070000Y-94500000D02*
X190070000Y-92700000D01*
X189020000Y-101850000D02*
X189020000Y-103100000D01*
X189320000Y-101000000D02*
X189320000Y-102800000D01*
X190070000Y-101000000D02*
X189320000Y-101000000D01*
X195280000Y-92690000D02*
X189310000Y-92690000D01*
X190070000Y-99500000D02*
X190070000Y-96000000D01*
X189320000Y-94500000D02*
X190070000Y-94500000D01*
X194520000Y-93450000D02*
X194520000Y-97750000D01*
X191570000Y-92700000D02*
X191570000Y-93450000D01*
X189020000Y-103100000D02*
X190270000Y-103100000D01*
X195280000Y-102810000D02*
X195280000Y-92690000D01*
X190070000Y-96000000D02*
X189320000Y-96000000D01*
X189310000Y-102810000D02*
X195280000Y-102810000D01*
X191570000Y-102800000D02*
X191570000Y-102050000D01*
X194520000Y-102050000D02*
X194520000Y-97750000D01*
X191570000Y-93450000D02*
X194520000Y-93450000D01*
X191570000Y-102050000D02*
X194520000Y-102050000D01*
X189320000Y-102800000D02*
X190070000Y-102800000D01*
X190070000Y-92700000D02*
X189320000Y-92700000D01*
X130720000Y-61520000D02*
X130720000Y-59720000D01*
X128470000Y-59720000D02*
X128470000Y-60470000D01*
X128470000Y-69070000D02*
X125520000Y-69070000D01*
X125520000Y-60470000D02*
X125520000Y-64770000D01*
X129970000Y-68020000D02*
X129970000Y-69820000D01*
X124760000Y-69830000D02*
X130730000Y-69830000D01*
X130720000Y-68020000D02*
X129970000Y-68020000D01*
X124760000Y-59710000D02*
X124760000Y-69830000D01*
X130730000Y-69830000D02*
X130730000Y-59710000D01*
X128470000Y-60470000D02*
X125520000Y-60470000D01*
X129970000Y-63020000D02*
X129970000Y-66520000D01*
X128470000Y-69820000D02*
X128470000Y-69070000D01*
X129970000Y-61520000D02*
X130720000Y-61520000D01*
X131020000Y-59420000D02*
X129770000Y-59420000D01*
X130720000Y-59720000D02*
X129970000Y-59720000D01*
X129970000Y-66520000D02*
X130720000Y-66520000D01*
X130720000Y-69820000D02*
X130720000Y-68020000D01*
X129970000Y-69820000D02*
X130720000Y-69820000D01*
X125520000Y-69070000D02*
X125520000Y-64770000D01*
X131020000Y-60670000D02*
X131020000Y-59420000D01*
X130730000Y-59710000D02*
X124760000Y-59710000D01*
X130720000Y-66520000D02*
X130720000Y-63020000D01*
X130720000Y-63020000D02*
X129970000Y-63020000D01*
X129970000Y-59720000D02*
X129970000Y-61520000D01*
X170280000Y-87630000D02*
X170350000Y-87630000D01*
X170280000Y-87630000D02*
G75*
G03*
X170280000Y-87630000I-1370000J0D01*
G01*
X185520000Y-69850000D02*
X185590000Y-69850000D01*
X185520000Y-69850000D02*
G75*
G03*
X185520000Y-69850000I-1370000J0D01*
G01*
X119480000Y-69850000D02*
X119550000Y-69850000D01*
X119480000Y-69850000D02*
G75*
G03*
X119480000Y-69850000I-1370000J0D01*
G01*
X170280000Y-67310000D02*
X170350000Y-67310000D01*
X170280000Y-67310000D02*
G75*
G03*
X170280000Y-67310000I-1370000J0D01*
G01*
X160880000Y-55445000D02*
X160880000Y-52495000D01*
X160130000Y-56945000D02*
X160130000Y-57695000D01*
X161930000Y-56945000D02*
X160130000Y-56945000D01*
X160880000Y-52495000D02*
X166430000Y-52495000D01*
X172730000Y-56945000D02*
X170930000Y-56945000D01*
X169430000Y-56945000D02*
X163430000Y-56945000D01*
X171980000Y-52495000D02*
X166430000Y-52495000D01*
X160120000Y-57705000D02*
X172740000Y-57705000D01*
X160120000Y-51735000D02*
X160120000Y-57705000D01*
X163430000Y-56945000D02*
X163430000Y-57695000D01*
X161930000Y-57695000D02*
X161930000Y-56945000D01*
X160130000Y-57695000D02*
X161930000Y-57695000D01*
X170930000Y-57695000D02*
X172730000Y-57695000D01*
X171780000Y-57995000D02*
X173030000Y-57995000D01*
X163430000Y-57695000D02*
X169430000Y-57695000D01*
X172730000Y-57695000D02*
X172730000Y-56945000D01*
X170930000Y-56945000D02*
X170930000Y-57695000D01*
X172730000Y-55445000D02*
X171980000Y-55445000D01*
X172740000Y-51735000D02*
X160120000Y-51735000D01*
X160130000Y-55445000D02*
X160880000Y-55445000D01*
X173030000Y-57995000D02*
X173030000Y-56745000D01*
X172740000Y-57705000D02*
X172740000Y-51735000D01*
X171980000Y-55445000D02*
X171980000Y-52495000D01*
X169430000Y-57695000D02*
X169430000Y-56945000D01*
X183780000Y-78955000D02*
X183780000Y-78890000D01*
X187020000Y-78955000D02*
X187020000Y-78890000D01*
X183780000Y-81130000D02*
X183780000Y-81065000D01*
X187020000Y-78890000D02*
X183780000Y-78890000D01*
X187020000Y-81130000D02*
X187020000Y-81065000D01*
X187020000Y-81130000D02*
X183780000Y-81130000D01*
X119695000Y-52070000D02*
G75*
G03*
X119695000Y-52070000I-950000J0D01*
G01*
X122235000Y-52070000D02*
G75*
G03*
X122235000Y-52070000I-950000J0D01*
G01*
X170280000Y-77470000D02*
X170350000Y-77470000D01*
X170280000Y-77470000D02*
G75*
G03*
X170280000Y-77470000I-1370000J0D01*
G01*
X134520000Y-85090000D02*
X134450000Y-85090000D01*
X137260000Y-85090000D02*
G75*
G03*
X137260000Y-85090000I-1370000J0D01*
G01*
X148220000Y-111610000D02*
X148220000Y-111545000D01*
X151460000Y-109435000D02*
X151460000Y-109370000D01*
X148220000Y-109435000D02*
X148220000Y-109370000D01*
X151460000Y-111610000D02*
X148220000Y-111610000D01*
X151460000Y-109370000D02*
X148220000Y-109370000D01*
X151460000Y-111610000D02*
X151460000Y-111545000D01*
X120980000Y-65890000D02*
X120980000Y-65825000D01*
X117740000Y-63715000D02*
X117740000Y-63650000D01*
X117740000Y-65890000D02*
X117740000Y-65825000D01*
X120980000Y-65890000D02*
X117740000Y-65890000D01*
X120980000Y-63650000D02*
X117740000Y-63650000D01*
X120980000Y-63715000D02*
X120980000Y-63650000D01*
X179280000Y-89230000D02*
X179280000Y-81180000D01*
X173780000Y-89030000D02*
X173780000Y-90280000D01*
X174830000Y-74180000D02*
X174830000Y-72380000D01*
X174070000Y-89990000D02*
X180040000Y-89990000D01*
X174080000Y-74180000D02*
X174830000Y-74180000D01*
X174080000Y-89980000D02*
X174830000Y-89980000D01*
X176330000Y-89230000D02*
X179280000Y-89230000D01*
X174830000Y-86680000D02*
X174830000Y-75680000D01*
X174830000Y-88180000D02*
X174080000Y-88180000D01*
X174070000Y-72370000D02*
X174070000Y-89990000D01*
X174080000Y-86680000D02*
X174830000Y-86680000D01*
X179280000Y-73130000D02*
X179280000Y-81180000D01*
X176330000Y-89980000D02*
X176330000Y-89230000D01*
X180040000Y-72370000D02*
X174070000Y-72370000D01*
X173780000Y-90280000D02*
X175030000Y-90280000D01*
X180040000Y-89990000D02*
X180040000Y-72370000D01*
X174830000Y-89980000D02*
X174830000Y-88180000D01*
X174830000Y-72380000D02*
X174080000Y-72380000D01*
X174080000Y-88180000D02*
X174080000Y-89980000D01*
X174080000Y-75680000D02*
X174080000Y-86680000D01*
X176330000Y-73130000D02*
X179280000Y-73130000D01*
X176330000Y-72380000D02*
X176330000Y-73130000D01*
X174080000Y-72380000D02*
X174080000Y-74180000D01*
X174830000Y-75680000D02*
X174080000Y-75680000D01*
X129855000Y-57150000D02*
G75*
G03*
X129855000Y-57150000I-950000J0D01*
G01*
X119695000Y-54610000D02*
G75*
G03*
X119695000Y-54610000I-950000J0D01*
G01*
X127315000Y-52070000D02*
G75*
G03*
X127315000Y-52070000I-950000J0D01*
G01*
X170120000Y-102810000D02*
X171450000Y-102810000D01*
X170120000Y-110550000D02*
X172780000Y-110550000D01*
X172780000Y-105410000D02*
X172780000Y-110550000D01*
X170120000Y-105410000D02*
X172780000Y-105410000D01*
X170120000Y-104140000D02*
X170120000Y-102810000D01*
X170120000Y-105410000D02*
X170120000Y-110550000D01*
X143410000Y-107410000D02*
X143410000Y-100870000D01*
X143740000Y-107410000D02*
X143410000Y-107410000D01*
X145820000Y-107410000D02*
X146150000Y-107410000D01*
X143410000Y-100870000D02*
X143740000Y-100870000D01*
X146150000Y-100870000D02*
X145820000Y-100870000D01*
X146150000Y-107410000D02*
X146150000Y-100870000D01*
X146900000Y-51555000D02*
X157900000Y-51555000D01*
X157900000Y-51555000D02*
X157900000Y-66555000D01*
X157900000Y-66555000D02*
X146900000Y-66555000D01*
X146900000Y-66555000D02*
X146900000Y-51555000D01*
X149860000Y-51765000D02*
X154940000Y-51765000D01*
X154940000Y-51765000D02*
X154940000Y-55095000D01*
X154940000Y-55095000D02*
X149860000Y-55095000D01*
X149860000Y-55095000D02*
X149860000Y-51765000D01*
X184885000Y-100330000D02*
X184955000Y-100330000D01*
X184885000Y-100330000D02*
G75*
G03*
X184885000Y-100330000I-1370000J0D01*
G01*
X132395000Y-57150000D02*
G75*
G03*
X132395000Y-57150000I-950000J0D01*
G01*
X185205000Y-65140000D02*
X185270000Y-65140000D01*
X185205000Y-61900000D02*
X185270000Y-61900000D01*
X183030000Y-61900000D02*
X183095000Y-61900000D01*
X183030000Y-65140000D02*
X183030000Y-61900000D01*
X185270000Y-65140000D02*
X185270000Y-61900000D01*
X183030000Y-65140000D02*
X183095000Y-65140000D01*
X127315000Y-57150000D02*
G75*
G03*
X127315000Y-57150000I-950000J0D01*
G01*
X122235000Y-54610000D02*
G75*
G03*
X122235000Y-54610000I-950000J0D01*
G01*
X134680000Y-96520000D02*
X134680000Y-101660000D01*
X132020000Y-95250000D02*
X132020000Y-93920000D01*
X132020000Y-96520000D02*
X134680000Y-96520000D01*
X132020000Y-96520000D02*
X132020000Y-101660000D01*
X132020000Y-101660000D02*
X134680000Y-101660000D01*
X132020000Y-93920000D02*
X133350000Y-93920000D01*
X184885000Y-95250000D02*
X184955000Y-95250000D01*
X184885000Y-95250000D02*
G75*
G03*
X184885000Y-95250000I-1370000J0D01*
G01*
X145095000Y-52070000D02*
G75*
G03*
X145095000Y-52070000I-950000J0D01*
G01*
X140870000Y-102870000D02*
X140800000Y-102870000D01*
X143610000Y-102870000D02*
G75*
G03*
X143610000Y-102870000I-1370000J0D01*
G01*
X117780000Y-78955000D02*
X117780000Y-78890000D01*
X121020000Y-78890000D02*
X117780000Y-78890000D01*
X121020000Y-81130000D02*
X117780000Y-81130000D01*
X121020000Y-78955000D02*
X121020000Y-78890000D01*
X117780000Y-81130000D02*
X117780000Y-81065000D01*
X121020000Y-81130000D02*
X121020000Y-81065000D01*
X137475000Y-54610000D02*
G75*
G03*
X137475000Y-54610000I-950000J0D01*
G01*
X134720000Y-77470000D02*
X134790000Y-77470000D01*
X134720000Y-77470000D02*
G75*
G03*
X134720000Y-77470000I-1370000J0D01*
G01*
X134935000Y-54610000D02*
G75*
G03*
X134935000Y-54610000I-950000J0D01*
G01*
X141070000Y-107950000D02*
X141140000Y-107950000D01*
X141070000Y-107950000D02*
G75*
G03*
X141070000Y-107950000I-1370000J0D01*
G01*
X119280000Y-67310000D02*
X119210000Y-67310000D01*
X122020000Y-67310000D02*
G75*
G03*
X122020000Y-67310000I-1370000J0D01*
G01*
X141070000Y-100330000D02*
X141140000Y-100330000D01*
X141070000Y-100330000D02*
G75*
G03*
X141070000Y-100330000I-1370000J0D01*
G01*
X185320000Y-67310000D02*
X185250000Y-67310000D01*
X188060000Y-67310000D02*
G75*
G03*
X188060000Y-67310000I-1370000J0D01*
G01*
X134260000Y-108920000D02*
X134260000Y-109480000D01*
X131260000Y-112600000D02*
X130260000Y-112600000D01*
X130260000Y-112600000D02*
X130260000Y-111600000D01*
X130560000Y-112300000D02*
X130560000Y-111450000D01*
X134260000Y-103600000D02*
X134260000Y-104470000D01*
X130560000Y-104480000D02*
X130560000Y-103600000D01*
X134260000Y-111420000D02*
X134260000Y-112300000D01*
X130560000Y-106980000D02*
X130560000Y-106420000D01*
X134260000Y-112300000D02*
X130560000Y-112300000D01*
X130560000Y-109450000D02*
X130560000Y-108920000D01*
X134260000Y-106430000D02*
X134260000Y-106980000D01*
X130560000Y-103600000D02*
X134260000Y-103600000D01*
X137475000Y-57150000D02*
G75*
G03*
X137475000Y-57150000I-950000J0D01*
G01*
X170120000Y-96520000D02*
X170120000Y-101660000D01*
X172780000Y-96520000D02*
X172780000Y-101660000D01*
X170120000Y-101660000D02*
X172780000Y-101660000D01*
X170120000Y-96520000D02*
X172780000Y-96520000D01*
X170120000Y-93920000D02*
X171450000Y-93920000D01*
X170120000Y-95250000D02*
X170120000Y-93920000D01*
X163930000Y-102870000D02*
X164000000Y-102870000D01*
X163930000Y-102870000D02*
G75*
G03*
X163930000Y-102870000I-1370000J0D01*
G01*
X124775000Y-57150000D02*
G75*
G03*
X124775000Y-57150000I-950000J0D01*
G01*
X125520000Y-73257000D02*
X125520000Y-81307000D01*
X130720000Y-74307000D02*
X130720000Y-72507000D01*
X130730000Y-90117000D02*
X130730000Y-72497000D01*
X130720000Y-86807000D02*
X130720000Y-75807000D01*
X130720000Y-75807000D02*
X129970000Y-75807000D01*
X124760000Y-90117000D02*
X130730000Y-90117000D01*
X128470000Y-90107000D02*
X128470000Y-89357000D01*
X129970000Y-75807000D02*
X129970000Y-86807000D01*
X130720000Y-90107000D02*
X130720000Y-88307000D01*
X130720000Y-88307000D02*
X129970000Y-88307000D01*
X128470000Y-72507000D02*
X128470000Y-73257000D01*
X124760000Y-72497000D02*
X124760000Y-90117000D01*
X129970000Y-88307000D02*
X129970000Y-90107000D01*
X129970000Y-72507000D02*
X129970000Y-74307000D01*
X129970000Y-86807000D02*
X130720000Y-86807000D01*
X130730000Y-72497000D02*
X124760000Y-72497000D01*
X125520000Y-89357000D02*
X125520000Y-81307000D01*
X128470000Y-73257000D02*
X125520000Y-73257000D01*
X131020000Y-72207000D02*
X129770000Y-72207000D01*
X129970000Y-74307000D02*
X130720000Y-74307000D01*
X129970000Y-90107000D02*
X130720000Y-90107000D01*
X131020000Y-73457000D02*
X131020000Y-72207000D01*
X128470000Y-89357000D02*
X125520000Y-89357000D01*
X130720000Y-72507000D02*
X129970000Y-72507000D01*
X136220000Y-65930000D02*
X132980000Y-65930000D01*
X132980000Y-65930000D02*
X132980000Y-65865000D01*
X136220000Y-65930000D02*
X136220000Y-65865000D01*
X136220000Y-63755000D02*
X136220000Y-63690000D01*
X136220000Y-63690000D02*
X132980000Y-63690000D01*
X132980000Y-63755000D02*
X132980000Y-63690000D01*
X140015000Y-57150000D02*
G75*
G03*
X140015000Y-57150000I-950000J0D01*
G01*
X170280000Y-82550000D02*
X170350000Y-82550000D01*
X170280000Y-82550000D02*
G75*
G03*
X170280000Y-82550000I-1370000J0D01*
G01*
X168540000Y-63650000D02*
X171780000Y-63650000D01*
X171780000Y-63650000D02*
X171780000Y-63715000D01*
X171780000Y-65825000D02*
X171780000Y-65890000D01*
X168540000Y-65825000D02*
X168540000Y-65890000D01*
X168540000Y-63650000D02*
X168540000Y-63715000D01*
X168540000Y-65890000D02*
X171780000Y-65890000D01*
X129855000Y-52070000D02*
G75*
G03*
X129855000Y-52070000I-950000J0D01*
G01*
X163730000Y-105410000D02*
X163660000Y-105410000D01*
X166470000Y-105410000D02*
G75*
G03*
X166470000Y-105410000I-1370000J0D01*
G01*
X140015000Y-54610000D02*
G75*
G03*
X140015000Y-54610000I-950000J0D01*
G01*
X149860000Y-90170000D02*
X154940000Y-90170000D01*
X154940000Y-90170000D02*
X154940000Y-92710000D01*
X154940000Y-92710000D02*
X149860000Y-92710000D01*
X149860000Y-92710000D02*
X149860000Y-90170000D01*
X137900000Y-58740000D02*
X166900000Y-58740000D01*
X166900000Y-58740000D02*
X166900000Y-98740000D01*
X166900000Y-98740000D02*
X137900000Y-98740000D01*
X137900000Y-98740000D02*
X137900000Y-58740000D01*
X147320000Y-62230000D02*
X157480000Y-62230000D01*
X157480000Y-62230000D02*
X157480000Y-72390000D01*
X157480000Y-72390000D02*
X147320000Y-72390000D01*
X147320000Y-72390000D02*
X147320000Y-62230000D01*
X161230000Y-96580000D02*
X166430000Y-96580000D01*
X143570000Y-60900000D02*
X143570000Y-96580000D01*
X140970000Y-63500000D02*
X140970000Y-60900000D01*
X138370000Y-96580000D02*
X143570000Y-96580000D01*
X163830000Y-60900000D02*
X166430000Y-60900000D01*
X138370000Y-63500000D02*
X140970000Y-63500000D01*
X138370000Y-60900000D02*
X139700000Y-60900000D01*
X161230000Y-63500000D02*
X161230000Y-96580000D01*
X140970000Y-60900000D02*
X143570000Y-60900000D01*
X138370000Y-63500000D02*
X138370000Y-96580000D01*
X166430000Y-60900000D02*
X166430000Y-96580000D01*
X163830000Y-63500000D02*
X163830000Y-60900000D01*
X161230000Y-62230000D02*
X161230000Y-60900000D01*
X161230000Y-63500000D02*
X163830000Y-63500000D01*
X138370000Y-62230000D02*
X138370000Y-60900000D01*
X161230000Y-60900000D02*
X162560000Y-60900000D01*
X184685000Y-97790000D02*
X184615000Y-97790000D01*
X187425000Y-97790000D02*
G75*
G03*
X187425000Y-97790000I-1370000J0D01*
G01*
X170080000Y-85090000D02*
X170010000Y-85090000D01*
X172820000Y-85090000D02*
G75*
G03*
X172820000Y-85090000I-1370000J0D01*
G01*
X119280000Y-97790000D02*
X119210000Y-97790000D01*
X122020000Y-97790000D02*
G75*
G03*
X122020000Y-97790000I-1370000J0D01*
G01*
X134720000Y-87630000D02*
X134790000Y-87630000D01*
X134720000Y-87630000D02*
G75*
G03*
X134720000Y-87630000I-1370000J0D01*
G01*
X127315000Y-54610000D02*
G75*
G03*
X127315000Y-54610000I-950000J0D01*
G01*
X119480000Y-100203000D02*
X119550000Y-100203000D01*
X119480000Y-100203000D02*
G75*
G03*
X119480000Y-100203000I-1370000J0D01*
G01*
X134935000Y-57150000D02*
G75*
G03*
X134935000Y-57150000I-950000J0D01*
G01*
X134720000Y-82550000D02*
X134790000Y-82550000D01*
X134720000Y-82550000D02*
G75*
G03*
X134720000Y-82550000I-1370000J0D01*
G01*
X189310000Y-72350000D02*
X195280000Y-72350000D01*
X191570000Y-71590000D02*
X194520000Y-71590000D01*
X191570000Y-60490000D02*
X194520000Y-60490000D01*
X190070000Y-69040000D02*
X190070000Y-63040000D01*
X190070000Y-59740000D02*
X189320000Y-59740000D01*
X189320000Y-59740000D02*
X189320000Y-61540000D01*
X190070000Y-61540000D02*
X190070000Y-59740000D01*
X189020000Y-72640000D02*
X190270000Y-72640000D01*
X195280000Y-59730000D02*
X189310000Y-59730000D01*
X189320000Y-69040000D02*
X190070000Y-69040000D01*
X189320000Y-70540000D02*
X189320000Y-72340000D01*
X191570000Y-72340000D02*
X191570000Y-71590000D01*
X195280000Y-72350000D02*
X195280000Y-59730000D01*
X194520000Y-71590000D02*
X194520000Y-66040000D01*
X189310000Y-59730000D02*
X189310000Y-72350000D01*
X189020000Y-71390000D02*
X189020000Y-72640000D01*
X189320000Y-61540000D02*
X190070000Y-61540000D01*
X190070000Y-70540000D02*
X189320000Y-70540000D01*
X189320000Y-63040000D02*
X189320000Y-69040000D01*
X194520000Y-60490000D02*
X194520000Y-66040000D01*
X190070000Y-63040000D02*
X189320000Y-63040000D01*
X191570000Y-59740000D02*
X191570000Y-60490000D01*
X190070000Y-72340000D02*
X190070000Y-70540000D01*
X189320000Y-72340000D02*
X190070000Y-72340000D01*
X174080000Y-59720000D02*
X174080000Y-61520000D01*
X174830000Y-66520000D02*
X174830000Y-63020000D01*
X179280000Y-69070000D02*
X179280000Y-64770000D01*
X180040000Y-59710000D02*
X174070000Y-59710000D01*
X174830000Y-69820000D02*
X174830000Y-68020000D01*
X174830000Y-61520000D02*
X174830000Y-59720000D01*
X176330000Y-69070000D02*
X179280000Y-69070000D01*
X174830000Y-59720000D02*
X174080000Y-59720000D01*
X180040000Y-69830000D02*
X180040000Y-59710000D01*
X174080000Y-66520000D02*
X174830000Y-66520000D01*
X173780000Y-70120000D02*
X175030000Y-70120000D01*
X174070000Y-59710000D02*
X174070000Y-69830000D01*
X176330000Y-59720000D02*
X176330000Y-60470000D01*
X176330000Y-69820000D02*
X176330000Y-69070000D01*
X174830000Y-68020000D02*
X174080000Y-68020000D01*
X174070000Y-69830000D02*
X180040000Y-69830000D01*
X174080000Y-63020000D02*
X174080000Y-66520000D01*
X173780000Y-68870000D02*
X173780000Y-70120000D01*
X174830000Y-63020000D02*
X174080000Y-63020000D01*
X174080000Y-68020000D02*
X174080000Y-69820000D01*
X179280000Y-60470000D02*
X179280000Y-64770000D01*
X174080000Y-69820000D02*
X174830000Y-69820000D01*
X176330000Y-60470000D02*
X179280000Y-60470000D01*
X174080000Y-61520000D02*
X174830000Y-61520000D01*
X119695000Y-57150000D02*
G75*
G03*
X119695000Y-57150000I-950000J0D01*
G01*
M02*
