M48
; DRILL file {KiCad (6.0.7)} date Tue Sep 20 02:34:29 2022
; FORMAT={-:-/ absolute / metric / decimal}
; #@! TF.CreationDate,2022-09-20T02:34:29+09:00
; #@! TF.GenerationSoftware,Kicad,Pcbnew,(6.0.7)
; #@! TF.FileFunction,MixedPlating,1,2
FMAT,2
METRIC
; #@! TA.AperFunction,Plated,PTH,ViaDrill
T1C0.400
; #@! TA.AperFunction,Plated,PTH,ComponentDrill
T2C0.700
; #@! TA.AperFunction,Plated,PTH,ComponentDrill
T3C0.762
; #@! TA.AperFunction,Plated,PTH,ComponentDrill
T4C0.800
; #@! TA.AperFunction,Plated,PTH,ComponentDrill
T5C0.813
; #@! TA.AperFunction,Plated,PTH,ComponentDrill
T6C0.950
; #@! TA.AperFunction,Plated,PTH,ComponentDrill
T7C1.000
; #@! TA.AperFunction,Plated,PTH,ComponentDrill
T8C1.300
; #@! TA.AperFunction,NonPlated,NPTH,ComponentDrill
T9C3.200
%
G90
G05
T1
X119.38Y-90.805
X119.507Y-89.408
X120.015Y-92.075
X120.65Y-90.805
X121.285Y-92.075
X121.92Y-90.805
X122.555Y-65.405
X122.555Y-67.945
X122.555Y-92.075
X123.19Y-64.135
X123.19Y-66.675
X123.19Y-69.215
X123.19Y-90.805
X123.19Y-97.155
X123.19Y-99.695
X123.825Y-65.405
X123.825Y-67.945
X123.825Y-92.075
X123.825Y-95.885
X123.825Y-98.425
X124.46Y-64.135
X124.46Y-66.675
X124.46Y-69.215
X124.46Y-90.805
X124.46Y-97.155
X124.46Y-99.695
X125.095Y-65.405
X125.095Y-67.945
X125.095Y-92.075
X125.095Y-98.425
X125.095Y-100.965
X125.73Y-64.135
X125.73Y-66.675
X125.73Y-69.215
X125.73Y-93.345
X125.73Y-97.155
X125.73Y-99.695
X126.365Y-98.425
X126.365Y-100.965
X127.0Y-97.155
X127.0Y-99.695
X127.635Y-90.805
X127.635Y-98.425
X127.635Y-100.965
X128.27Y-92.075
X128.27Y-97.155
X128.27Y-99.695
X128.905Y-90.805
X128.905Y-98.425
X129.54Y-92.075
X129.54Y-93.345
X129.54Y-97.155
X130.175Y-90.805
X130.81Y-92.075
X130.81Y-93.345
X131.445Y-90.805
X131.445Y-99.06
X132.08Y-92.075
X132.08Y-93.345
X132.715Y-90.805
X133.35Y-92.075
X133.35Y-93.345
X133.35Y-103.886
X135.382Y-90.26
X137.668Y-97.79
X152.654Y-77.47
X152.654Y-91.44
X152.654Y-93.98
X159.512Y-57.277
X162.56Y-107.225
X167.132Y-61.849
X167.64Y-91.313
X167.64Y-92.71
X167.767Y-62.865
X168.91Y-105.41
X173.355Y-98.425
X173.355Y-100.965
X173.355Y-103.505
X173.99Y-97.155
X173.99Y-99.695
X173.99Y-102.235
X174.625Y-98.425
X174.625Y-100.965
X174.625Y-103.505
X175.26Y-97.155
X175.26Y-99.695
X175.26Y-102.235
X175.895Y-98.425
X175.895Y-100.965
X175.895Y-103.505
X176.53Y-97.155
X176.53Y-99.695
X176.53Y-102.235
X177.165Y-98.425
X177.165Y-100.965
X177.165Y-103.505
X177.8Y-97.155
X177.8Y-99.695
X177.8Y-102.235
X178.435Y-98.425
X178.435Y-100.965
X178.435Y-103.505
X179.07Y-97.155
X179.07Y-99.695
X179.07Y-102.235
X179.705Y-98.425
X179.705Y-100.965
X180.34Y-102.362
T2
X118.745Y-52.07
X118.745Y-54.61
X118.745Y-57.15
X121.285Y-52.07
X121.285Y-54.61
X121.285Y-57.15
X123.825Y-52.07
X123.825Y-54.61
X123.825Y-57.15
X126.365Y-52.07
X126.365Y-54.61
X126.365Y-57.15
X128.905Y-52.07
X128.905Y-54.61
X128.905Y-57.15
X131.445Y-52.07
X131.445Y-54.61
X131.445Y-57.15
X133.985Y-52.07
X133.985Y-54.61
X133.985Y-57.15
X136.525Y-52.07
X136.525Y-54.61
X136.525Y-57.15
X139.065Y-52.07
X139.065Y-54.61
X139.065Y-57.15
X141.605Y-52.07
X141.605Y-54.61
X141.605Y-57.15
X144.145Y-52.07
X144.145Y-54.61
X144.145Y-57.15
T3
X148.59Y-64.135
X151.13Y-64.135
X153.67Y-64.135
X156.21Y-64.135
T4
X118.11Y-64.77
X118.11Y-67.31
X118.11Y-69.85
X118.11Y-82.55
X118.11Y-85.09
X118.11Y-87.63
X118.11Y-95.25
X118.11Y-97.79
X118.11Y-100.203
X118.15Y-80.01
X120.61Y-64.77
X120.65Y-67.31
X120.65Y-69.85
X120.65Y-80.01
X120.65Y-82.55
X120.65Y-85.09
X120.65Y-87.63
X120.65Y-95.25
X120.65Y-97.79
X120.65Y-100.203
X130.81Y-105.45
X130.81Y-107.95
X130.81Y-110.45
X133.35Y-64.81
X133.35Y-67.31
X133.35Y-74.93
X133.35Y-77.47
X133.35Y-80.01
X133.35Y-82.55
X133.35Y-85.09
X133.35Y-87.63
X134.01Y-105.45
X134.01Y-107.95
X134.01Y-110.45
X135.85Y-64.81
X135.89Y-67.31
X135.89Y-74.93
X135.89Y-77.47
X135.89Y-80.01
X135.89Y-82.55
X135.89Y-85.09
X135.89Y-87.63
X139.7Y-100.33
X139.7Y-102.87
X139.7Y-107.95
X142.24Y-100.33
X142.24Y-102.87
X142.24Y-107.95
X144.78Y-100.33
X144.78Y-107.95
X148.59Y-100.33
X148.59Y-102.87
X148.59Y-105.41
X148.59Y-107.95
X148.59Y-110.49
X151.09Y-110.49
X156.21Y-100.33
X156.21Y-102.87
X156.21Y-105.41
X156.21Y-107.95
X160.02Y-102.87
X160.02Y-110.49
X162.56Y-102.87
X162.56Y-105.41
X162.56Y-110.49
X165.1Y-102.87
X165.1Y-105.41
X165.1Y-110.49
X168.91Y-64.77
X168.91Y-67.31
X168.91Y-74.93
X168.91Y-77.47
X168.91Y-80.01
X168.91Y-82.55
X168.91Y-85.09
X168.91Y-87.63
X171.41Y-64.77
X171.45Y-67.31
X171.45Y-74.93
X171.45Y-77.47
X171.45Y-80.01
X171.45Y-82.55
X171.45Y-85.09
X171.45Y-87.63
X183.515Y-95.25
X183.515Y-97.79
X183.515Y-100.33
X184.15Y-62.27
X184.15Y-64.77
X184.15Y-67.31
X184.15Y-69.85
X184.15Y-80.01
X184.15Y-82.55
X184.15Y-85.09
X184.15Y-87.63
X186.055Y-95.25
X186.055Y-97.79
X186.055Y-100.33
X186.65Y-80.01
X186.69Y-67.31
X186.69Y-69.85
X186.69Y-82.55
X186.69Y-85.09
X186.69Y-87.63
T5
X119.38Y-105.41
X119.38Y-110.49
X127.0Y-105.41
X127.0Y-110.49
T6
X113.03Y-62.23
X113.03Y-64.73
X113.03Y-67.23
X113.03Y-69.73
X113.03Y-77.47
X113.03Y-79.97
X113.03Y-82.47
X113.03Y-84.97
X113.03Y-87.47
X113.03Y-95.25
X113.03Y-97.75
X113.03Y-100.25
X128.27Y-62.27
X128.27Y-64.77
X128.27Y-67.27
X128.27Y-75.057
X128.27Y-77.557
X128.27Y-80.057
X128.27Y-82.557
X128.27Y-85.057
X128.27Y-87.557
X162.68Y-55.245
X165.18Y-55.245
X167.68Y-55.245
X170.18Y-55.245
X176.53Y-62.27
X176.53Y-64.77
X176.53Y-67.27
X176.53Y-74.93
X176.53Y-77.43
X176.53Y-79.93
X176.53Y-82.43
X176.53Y-84.93
X176.53Y-87.43
X191.77Y-62.29
X191.77Y-64.79
X191.77Y-67.29
X191.77Y-69.79
X191.77Y-77.63
X191.77Y-80.13
X191.77Y-82.63
X191.77Y-85.13
X191.77Y-87.63
X191.77Y-95.25
X191.77Y-97.75
X191.77Y-100.25
T7
X133.35Y-95.25
X133.35Y-97.79
X133.35Y-100.33
X139.7Y-62.23
X139.7Y-64.77
X139.7Y-67.31
X139.7Y-69.85
X139.7Y-72.39
X139.7Y-74.93
X139.7Y-77.47
X139.7Y-80.01
X139.7Y-82.55
X139.7Y-85.09
X139.7Y-87.63
X139.7Y-90.17
X139.7Y-92.71
X139.7Y-95.25
X142.24Y-62.23
X142.24Y-64.77
X142.24Y-67.31
X142.24Y-69.85
X142.24Y-72.39
X142.24Y-74.93
X142.24Y-77.47
X142.24Y-80.01
X142.24Y-82.55
X142.24Y-85.09
X142.24Y-87.63
X142.24Y-90.17
X142.24Y-92.71
X142.24Y-95.25
X162.56Y-62.23
X162.56Y-64.77
X162.56Y-67.31
X162.56Y-69.85
X162.56Y-72.39
X162.56Y-74.93
X162.56Y-77.47
X162.56Y-80.01
X162.56Y-82.55
X162.56Y-85.09
X162.56Y-87.63
X162.56Y-90.17
X162.56Y-92.71
X162.56Y-95.25
X165.1Y-62.23
X165.1Y-64.77
X165.1Y-67.31
X165.1Y-69.85
X165.1Y-72.39
X165.1Y-74.93
X165.1Y-77.47
X165.1Y-80.01
X165.1Y-82.55
X165.1Y-85.09
X165.1Y-87.63
X165.1Y-90.17
X165.1Y-92.71
X165.1Y-95.25
X171.45Y-95.25
X171.45Y-97.79
X171.45Y-100.33
X171.45Y-104.14
X171.45Y-106.68
X171.45Y-109.22
T8
X177.8Y-109.22
X182.88Y-109.22
T9
X112.5Y-53.75
X112.5Y-110.75
X192.5Y-53.75
X192.5Y-110.75
T0
M30
