G04 #@! TF.GenerationSoftware,KiCad,Pcbnew,(6.0.7)*
G04 #@! TF.CreationDate,2022-09-20T02:34:23+09:00*
G04 #@! TF.ProjectId,autocar_motcntr_v1,6175746f-6361-4725-9f6d-6f74636e7472,rev?*
G04 #@! TF.SameCoordinates,Original*
G04 #@! TF.FileFunction,Soldermask,Top*
G04 #@! TF.FilePolarity,Negative*
%FSLAX46Y46*%
G04 Gerber Fmt 4.6, Leading zero omitted, Abs format (unit mm)*
G04 Created by KiCad (PCBNEW (6.0.7)) date 2022-09-20 02:34:23*
%MOMM*%
%LPD*%
G01*
G04 APERTURE LIST*
G04 Aperture macros list*
%AMRoundRect*
0 Rectangle with rounded corners*
0 $1 Rounding radius*
0 $2 $3 $4 $5 $6 $7 $8 $9 X,Y pos of 4 corners*
0 Add a 4 corners polygon primitive as box body*
4,1,4,$2,$3,$4,$5,$6,$7,$8,$9,$2,$3,0*
0 Add four circle primitives for the rounded corners*
1,1,$1+$1,$2,$3*
1,1,$1+$1,$4,$5*
1,1,$1+$1,$6,$7*
1,1,$1+$1,$8,$9*
0 Add four rect primitives between the rounded corners*
20,1,$1+$1,$2,$3,$4,$5,0*
20,1,$1+$1,$4,$5,$6,$7,0*
20,1,$1+$1,$6,$7,$8,$9,0*
20,1,$1+$1,$8,$9,$2,$3,0*%
G04 Aperture macros list end*
%ADD10C,1.500000*%
%ADD11C,1.600000*%
%ADD12O,1.600000X1.600000*%
%ADD13RoundRect,0.250000X0.725000X-0.600000X0.725000X0.600000X-0.725000X0.600000X-0.725000X-0.600000X0*%
%ADD14O,1.950000X1.700000*%
%ADD15C,1.397000*%
%ADD16RoundRect,0.250000X-0.725000X0.600000X-0.725000X-0.600000X0.725000X-0.600000X0.725000X0.600000X0*%
%ADD17C,3.200000*%
%ADD18C,2.600000*%
%ADD19R,1.600000X1.600000*%
%ADD20RoundRect,0.250000X0.600000X0.725000X-0.600000X0.725000X-0.600000X-0.725000X0.600000X-0.725000X0*%
%ADD21O,1.700000X1.950000*%
%ADD22R,1.700000X1.700000*%
%ADD23O,1.700000X1.700000*%
%ADD24C,1.524000*%
G04 APERTURE END LIST*
D10*
X133985000Y-52070000D03*
X121285000Y-57150000D03*
D11*
X184150000Y-87630000D03*
D12*
X186690000Y-87630000D03*
D13*
X191770000Y-87630000D03*
D14*
X191770000Y-85130000D03*
X191770000Y-82630000D03*
X191770000Y-80130000D03*
X191770000Y-77630000D03*
D11*
X165100000Y-110490000D03*
D12*
X162560000Y-110490000D03*
D10*
X136525000Y-52070000D03*
X131445000Y-54610000D03*
X123825000Y-54610000D03*
D15*
X127000000Y-105410000D03*
X119380000Y-105410000D03*
X119380000Y-110490000D03*
X127000000Y-110490000D03*
D14*
X113030000Y-69730000D03*
X113030000Y-67230000D03*
X113030000Y-64730000D03*
D16*
X113030000Y-62230000D03*
D11*
X160020000Y-110490000D03*
D12*
X160020000Y-102870000D03*
D11*
X118110000Y-95250000D03*
D12*
X120650000Y-95250000D03*
D17*
X112500000Y-110750000D03*
D10*
X139065000Y-52070000D03*
X141605000Y-54610000D03*
X141605000Y-52070000D03*
X123825000Y-52070000D03*
X144145000Y-57150000D03*
D18*
X177800000Y-109220000D03*
X182880000Y-109220000D03*
D17*
X192500000Y-110750000D03*
D11*
X120650000Y-85090000D03*
D12*
X118110000Y-85090000D03*
D19*
X156210000Y-107950000D03*
D12*
X156210000Y-105410000D03*
X156210000Y-102870000D03*
X156210000Y-100330000D03*
X148590000Y-100330000D03*
X148590000Y-102870000D03*
X148590000Y-105410000D03*
X148590000Y-107950000D03*
D11*
X171450000Y-80010000D03*
D12*
X168910000Y-80010000D03*
D11*
X133350000Y-67310000D03*
D12*
X135890000Y-67310000D03*
D11*
X184150000Y-82550000D03*
D12*
X186690000Y-82550000D03*
D11*
X135890000Y-80010000D03*
D12*
X133350000Y-80010000D03*
D16*
X113030000Y-77470000D03*
D14*
X113030000Y-79970000D03*
X113030000Y-82470000D03*
X113030000Y-84970000D03*
X113030000Y-87470000D03*
D11*
X118110000Y-82550000D03*
D12*
X120650000Y-82550000D03*
D11*
X118110000Y-87630000D03*
D12*
X120650000Y-87630000D03*
D10*
X141605000Y-57150000D03*
D11*
X186690000Y-85090000D03*
D12*
X184150000Y-85090000D03*
D11*
X135890000Y-74930000D03*
D12*
X133350000Y-74930000D03*
D10*
X144145000Y-54610000D03*
D11*
X171450000Y-74930000D03*
D12*
X168910000Y-74930000D03*
D10*
X131445000Y-52070000D03*
X128905000Y-54610000D03*
D14*
X113030000Y-100250000D03*
X113030000Y-97750000D03*
D16*
X113030000Y-95250000D03*
D13*
X191770000Y-100250000D03*
D14*
X191770000Y-97750000D03*
X191770000Y-95250000D03*
D16*
X128270000Y-62270000D03*
D14*
X128270000Y-64770000D03*
X128270000Y-67270000D03*
D11*
X168910000Y-87630000D03*
D12*
X171450000Y-87630000D03*
D11*
X184150000Y-69850000D03*
D12*
X186690000Y-69850000D03*
D11*
X118110000Y-69850000D03*
D12*
X120650000Y-69850000D03*
D11*
X168910000Y-67310000D03*
D12*
X171450000Y-67310000D03*
D20*
X170180000Y-55245000D03*
D21*
X167680000Y-55245000D03*
X165180000Y-55245000D03*
X162680000Y-55245000D03*
D11*
X186650000Y-80010000D03*
X184150000Y-80010000D03*
D17*
X112500000Y-53750000D03*
D10*
X118745000Y-52070000D03*
X121285000Y-52070000D03*
D11*
X168910000Y-77470000D03*
D12*
X171450000Y-77470000D03*
D11*
X135890000Y-85090000D03*
D12*
X133350000Y-85090000D03*
D11*
X148590000Y-110490000D03*
X151090000Y-110490000D03*
X118110000Y-64770000D03*
X120610000Y-64770000D03*
D13*
X176530000Y-87430000D03*
D14*
X176530000Y-84930000D03*
X176530000Y-82430000D03*
X176530000Y-79930000D03*
X176530000Y-77430000D03*
X176530000Y-74930000D03*
D10*
X128905000Y-57150000D03*
X118745000Y-54610000D03*
D17*
X192500000Y-53750000D03*
D10*
X126365000Y-52070000D03*
D22*
X171450000Y-104140000D03*
D23*
X171450000Y-106680000D03*
X171450000Y-109220000D03*
D11*
X144780000Y-107950000D03*
D12*
X144780000Y-100330000D03*
D24*
X148590000Y-64135000D03*
X151130000Y-64135000D03*
X153670000Y-64135000D03*
X156210000Y-64135000D03*
D11*
X183515000Y-100330000D03*
D12*
X186055000Y-100330000D03*
D10*
X131445000Y-57150000D03*
D11*
X184150000Y-64770000D03*
X184150000Y-62270000D03*
D10*
X126365000Y-57150000D03*
X121285000Y-54610000D03*
D22*
X133350000Y-95250000D03*
D23*
X133350000Y-97790000D03*
X133350000Y-100330000D03*
D11*
X183515000Y-95250000D03*
D12*
X186055000Y-95250000D03*
D10*
X144145000Y-52070000D03*
D11*
X142240000Y-102870000D03*
D12*
X139700000Y-102870000D03*
D11*
X118150000Y-80010000D03*
X120650000Y-80010000D03*
D10*
X136525000Y-54610000D03*
D11*
X133350000Y-77470000D03*
D12*
X135890000Y-77470000D03*
D10*
X133985000Y-54610000D03*
D11*
X139700000Y-107950000D03*
D12*
X142240000Y-107950000D03*
D11*
X120650000Y-67310000D03*
D12*
X118110000Y-67310000D03*
D11*
X139700000Y-100330000D03*
D12*
X142240000Y-100330000D03*
D11*
X186690000Y-67310000D03*
D12*
X184150000Y-67310000D03*
D19*
X130810000Y-110450000D03*
D11*
X130810000Y-107950000D03*
X130810000Y-105450000D03*
X134010000Y-110450000D03*
X134010000Y-107950000D03*
X134010000Y-105450000D03*
D10*
X136525000Y-57150000D03*
D22*
X171450000Y-95250000D03*
D23*
X171450000Y-97790000D03*
X171450000Y-100330000D03*
D11*
X162560000Y-102870000D03*
D12*
X165100000Y-102870000D03*
D10*
X123825000Y-57150000D03*
D14*
X128270000Y-87557000D03*
X128270000Y-85057000D03*
X128270000Y-82557000D03*
X128270000Y-80057000D03*
X128270000Y-77557000D03*
D16*
X128270000Y-75057000D03*
D11*
X135850000Y-64810000D03*
X133350000Y-64810000D03*
D10*
X139065000Y-57150000D03*
D11*
X168910000Y-82550000D03*
D12*
X171450000Y-82550000D03*
D11*
X171410000Y-64770000D03*
X168910000Y-64770000D03*
D10*
X128905000Y-52070000D03*
D11*
X165100000Y-105410000D03*
D12*
X162560000Y-105410000D03*
D10*
X139065000Y-54610000D03*
D23*
X165100000Y-95250000D03*
X162560000Y-95250000D03*
X165100000Y-92710000D03*
X162560000Y-92710000D03*
X165100000Y-90170000D03*
X162560000Y-90170000D03*
X165100000Y-87630000D03*
X162560000Y-87630000D03*
X165100000Y-85090000D03*
X162560000Y-85090000D03*
X165100000Y-82550000D03*
X162560000Y-82550000D03*
X165100000Y-80010000D03*
X162560000Y-80010000D03*
X165100000Y-77470000D03*
X162560000Y-77470000D03*
X165100000Y-74930000D03*
X162560000Y-74930000D03*
X165100000Y-72390000D03*
X162560000Y-72390000D03*
X165100000Y-69850000D03*
X162560000Y-69850000D03*
X165100000Y-67310000D03*
X162560000Y-67310000D03*
X165100000Y-64770000D03*
X162560000Y-64770000D03*
X165100000Y-62230000D03*
D22*
X162560000Y-62230000D03*
D23*
X142240000Y-95250000D03*
X139700000Y-95250000D03*
X142240000Y-92710000D03*
X139700000Y-92710000D03*
X142240000Y-90170000D03*
X139700000Y-90170000D03*
X142240000Y-87630000D03*
X139700000Y-87630000D03*
X142240000Y-85090000D03*
X139700000Y-85090000D03*
X142240000Y-82550000D03*
X139700000Y-82550000D03*
X142240000Y-80010000D03*
X139700000Y-80010000D03*
X142240000Y-77470000D03*
X139700000Y-77470000D03*
X142240000Y-74930000D03*
X139700000Y-74930000D03*
X142240000Y-72390000D03*
X139700000Y-72390000D03*
X142240000Y-69850000D03*
X139700000Y-69850000D03*
X142240000Y-67310000D03*
X139700000Y-67310000D03*
X142240000Y-64770000D03*
X139700000Y-64770000D03*
X142240000Y-62230000D03*
D22*
X139700000Y-62230000D03*
D11*
X186055000Y-97790000D03*
D12*
X183515000Y-97790000D03*
D11*
X171450000Y-85090000D03*
D12*
X168910000Y-85090000D03*
D11*
X120650000Y-97790000D03*
D12*
X118110000Y-97790000D03*
D11*
X133350000Y-87630000D03*
D12*
X135890000Y-87630000D03*
D10*
X126365000Y-54610000D03*
D11*
X118110000Y-100203000D03*
D12*
X120650000Y-100203000D03*
D10*
X133985000Y-57150000D03*
D11*
X133350000Y-82550000D03*
D12*
X135890000Y-82550000D03*
D13*
X191770000Y-69790000D03*
D14*
X191770000Y-67290000D03*
X191770000Y-64790000D03*
X191770000Y-62290000D03*
D13*
X176530000Y-67270000D03*
D14*
X176530000Y-64770000D03*
X176530000Y-62270000D03*
D10*
X118745000Y-57150000D03*
M02*
